<svg width="152" height="154" viewBox="0 0 152 154" fill="none" xmlns="http://www.w3.org/2000/svg">
<path d="M138.883 123.275C117.657 152.746 72.4181 155.332 37.8349 129.052C3.25182 102.773 -7.57426 57.5808 13.6479 28.1138C34.8701 -1.35324 80.1128 -3.94267 114.696 22.3365C149.279 48.6157 160.109 93.8082 138.883 123.275Z" fill="url(#paint0_radial_1_975)"/>
<path d="M138.883 123.275C117.657 152.746 72.4181 155.332 37.8349 129.052C3.25182 102.773 -7.57426 57.5808 13.6479 28.1138C34.8701 -1.35324 80.1128 -3.94267 114.696 22.3365C149.279 48.6157 160.109 93.8082 138.883 123.275Z" fill="url(#paint1_radial_1_975)"/>
<path opacity="0.7" d="M38.5842 53.6129L50.7176 5.31805C42.9604 6.7321 35.654 9.48539 29.173 13.553L15.7947 105.281C18.8809 110.096 22.4908 114.709 26.6069 119.022L38.5842 53.6129Z" fill="#FCFFAC"/>
<path d="M78.9343 34.2328L83.5186 33.5917L88.3109 8.33476C86.2511 7.65445 84.1844 7.05606 82.1142 6.54315L78.9343 34.2328Z" fill="#FCFFAC"/>
<path opacity="0.7" d="M118.992 76.8466L111.017 143.684C114.138 142.623 117.148 141.316 120.019 139.773L129.805 36.6906C127.419 33.8518 124.829 31.1199 122.041 28.5198L118.992 76.8466Z" fill="#FCFFAC"/>
<path d="M122.663 114.032C138.487 92.0605 130.413 58.3667 104.63 38.775C78.8466 19.1834 45.1168 21.1128 29.2925 43.0846C13.4681 65.0564 21.5415 98.7502 47.3249 118.342C73.1084 137.934 106.838 136.004 122.663 114.032Z" fill="#FCFFAC"/>
<path d="M123.188 111.346C139.101 89.252 130.982 55.3712 105.056 35.6708C79.1289 15.9703 45.212 17.9103 29.2999 40.0039C13.3878 62.0974 21.5062 95.9782 47.4328 115.679C73.3594 135.379 107.276 133.439 123.188 111.346Z" fill="#FBAA12"/>
<path opacity="0.3" d="M131.247 81.9009C130.557 89.7512 127.956 97.2417 123.292 103.721C107.379 125.815 73.4616 127.752 47.5338 108.052C31.6484 95.9808 22.4487 78.5849 21.3633 61.8407C19.6988 80.7647 29.1274 101.772 47.4506 115.699C73.3784 135.4 107.296 133.462 123.209 111.368C129.374 102.809 131.934 92.4867 131.247 81.9009Z" fill="#EA831C"/>
<path opacity="0.25" d="M25.095 16.3739C19.148 37.2391 28.4517 62.7809 49.6254 78.8697C75.5705 98.5844 109.512 96.6432 125.436 74.535C132.437 64.8147 134.788 52.8149 133.023 40.7439C127.977 34.0049 121.847 27.7646 114.7 22.3364C85.4638 0.121261 48.6163 -1.46731 25.095 16.3739Z" fill="#FFFFEB"/>
<path d="M29.4159 42.4038C45.329 20.3098 79.2464 18.3722 105.174 38.0726C121.105 50.1793 130.311 67.6358 131.352 84.4263C131.078 66.9235 121.767 48.3699 105.081 35.6898C79.1528 15.9893 45.2354 17.9269 29.3223 40.0209C23.188 48.5408 20.6253 58.8096 21.2773 69.3455C21.1247 59.6502 23.7428 50.279 29.4159 42.4038Z" fill="#CF7310"/>
<defs>
<radialGradient id="paint0_radial_1_975" cx="0" cy="0" r="1" gradientUnits="userSpaceOnUse" gradientTransform="translate(76.2668 75.6941) rotate(37.2296) scale(78.6441 65.7357)">
<stop stop-color="#FBC01E"/>
<stop offset="0.4609" stop-color="#FDC822"/>
<stop offset="1" stop-color="#FCE13C"/>
</radialGradient>
<radialGradient id="paint1_radial_1_975" cx="0" cy="0" r="1" gradientUnits="userSpaceOnUse" gradientTransform="translate(76.2668 75.6941) rotate(37.2296) scale(78.6441 65.7357)">
<stop stop-color="#FBC01E"/>
<stop offset="0.4609" stop-color="#FDC822"/>
<stop offset="1" stop-color="#FCE13C"/>
</radialGradient>
</defs>
</svg>
