<svg width="157" height="167" viewBox="0 0 157 167" fill="none" xmlns="http://www.w3.org/2000/svg">
<path d="M94.9913 44.2017V56.7077H61.98V44.2017C61.98 41.2939 65.0631 38.9297 68.9248 38.9297H88.0465C91.877 38.9534 94.9913 41.3175 94.9913 44.2017Z" fill="white"/>
<path d="M78.4856 56.7308H61.98V44.2248C61.98 41.3169 65.0631 38.9529 68.9248 38.9529H78.4856V53.4211V56.7308Z" fill="#8AF3FF"/>
<path d="M151.296 97.7711C163.286 89.5914 155.033 74.5321 138.963 75.1704H138.091C128.312 75.1704 120.527 68.9765 120.994 61.5296C121.835 49.3073 101.997 43.0661 91.2214 52.1678C87.7957 55.0047 83.1554 56.4232 78.5151 56.4232C73.8749 56.4232 69.2034 55.0047 65.8089 52.1678C62.2586 49.1654 57.7429 47.8415 53.2583 47.8415C44.1958 47.8415 35.507 53.3262 36.0364 61.5296C36.5347 69.1893 28.2196 75.5487 18.067 75.1704C17.7244 75.1468 17.413 75.1468 17.1016 75.1468C1.65476 75.1468 -6.00636 89.7569 5.73447 97.7711C13.271 102.925 13.271 111.885 5.73447 117.062C1.77934 119.757 0.0353371 123.185 0.0353371 126.589C0.0353371 133.469 7.26046 140.065 18.067 139.663H18.9079C28.6867 139.663 36.4724 145.833 36.0052 153.304C35.1644 165.526 55.0024 171.767 65.7778 162.665C69.2035 159.828 73.8437 158.363 78.484 158.363C83.1243 158.363 87.7957 159.805 91.1902 162.665C101.966 171.767 121.804 165.502 120.963 153.304C120.464 145.62 128.78 139.285 138.932 139.663C139.275 139.686 139.586 139.686 139.898 139.686C155.344 139.686 163.005 125.076 151.265 117.062C143.759 111.885 143.759 102.925 151.296 97.7711ZM78.484 129.119C62.6946 129.119 49.8949 119.426 49.8949 107.417C49.8949 95.4307 62.6946 85.7143 78.484 85.7143C94.2734 85.7143 107.073 95.4307 107.073 107.417C107.104 119.426 94.2734 129.119 78.484 129.119Z" fill="#FFB017"/>
<path d="M49.8958 107.418C49.8958 119.427 62.6955 129.12 78.4849 129.12V158.364C73.8446 158.364 69.1732 159.806 65.7786 162.666C55.0032 171.768 35.1653 165.503 36.0061 153.305C36.4733 145.834 28.6876 139.664 18.9087 139.664H18.0367C7.2302 140.066 0.00507238 133.47 0.00507238 126.59C0.00507238 123.186 1.74906 119.758 5.70419 117.063C13.2407 111.886 13.2407 102.926 5.70419 97.7721C-6.03663 89.7578 1.6245 75.1477 17.0713 75.1477C17.3827 75.1477 17.6942 75.1477 18.0367 75.1714C28.1581 75.5496 36.5044 69.2138 36.0061 61.5305C35.4767 53.3271 44.1655 47.8424 53.2281 47.8424C57.7126 47.8424 62.2283 49.1663 65.7786 52.1687C69.2043 55.0056 73.8446 56.4241 78.4849 56.4241V85.7152C62.6955 85.6915 49.8958 95.4316 49.8958 107.418Z" fill="#FC8035"/>
<path d="M105.89 70.8207C104.083 77.1565 109.627 83.3031 117.973 84.3433C118.222 84.367 118.471 84.4143 118.752 84.4143C132.61 85.5963 136.846 99.3789 125.105 105.1" stroke="white" stroke-width="2" stroke-miterlimit="10"/>
<path d="M74.7695 110.938C74.7695 111.539 74.6784 112.013 74.4961 112.359C74.3138 112.706 74.0586 112.879 73.7305 112.879H69.7383V120.316C69.7383 120.462 69.7018 120.59 69.6289 120.699C69.556 120.79 69.4284 120.872 69.2461 120.945C69.0638 121.018 68.8268 121.073 68.5352 121.109C68.2435 121.146 67.8698 121.164 67.4141 121.164C66.9766 121.164 66.612 121.146 66.3203 121.109C66.0286 121.073 65.7917 121.018 65.6094 120.945C65.4453 120.872 65.3268 120.79 65.2539 120.699C65.1992 120.59 65.1719 120.462 65.1719 120.316V112.879H50.5703C50.3516 112.879 50.1693 112.852 50.0234 112.797C49.8776 112.742 49.7409 112.642 49.6133 112.496C49.5039 112.35 49.4219 112.141 49.3672 111.867C49.3307 111.594 49.3125 111.238 49.3125 110.801C49.3125 110.454 49.3216 110.145 49.3398 109.871C49.3581 109.598 49.3945 109.352 49.4492 109.133C49.5039 108.896 49.5768 108.677 49.668 108.477C49.7591 108.258 49.8685 108.03 49.9961 107.793L62.7383 86.3008C62.8294 86.155 62.957 86.0274 63.1211 85.918C63.3034 85.8087 63.5312 85.7175 63.8047 85.6446C64.0781 85.5717 64.4154 85.5261 64.8164 85.5079C65.2174 85.4714 65.6914 85.4532 66.2383 85.4532C66.8398 85.4532 67.3594 85.4805 67.7969 85.5352C68.2526 85.5717 68.6172 85.6264 68.8906 85.6993C69.1641 85.7722 69.3737 85.8725 69.5195 86.0001C69.6654 86.1094 69.7383 86.2462 69.7383 86.4102V108.996H73.7305C74.0404 108.996 74.2865 109.16 74.4688 109.488C74.6693 109.798 74.7695 110.281 74.7695 110.938ZM65.1719 89.5821H65.1172L53.6055 108.996H65.1719V89.5821ZM103.648 118.977C103.648 119.305 103.621 119.596 103.566 119.852C103.53 120.107 103.466 120.326 103.375 120.508C103.302 120.672 103.193 120.8 103.047 120.891C102.919 120.964 102.773 121 102.609 121H83.0586C82.8034 121 82.5755 120.973 82.375 120.918C82.1927 120.845 82.0286 120.736 81.8828 120.59C81.7552 120.444 81.6549 120.234 81.582 119.961C81.5273 119.688 81.5 119.35 81.5 118.949C81.5 118.585 81.5091 118.266 81.5273 117.992C81.5638 117.719 81.6276 117.482 81.7188 117.281C81.8099 117.063 81.9193 116.853 82.0469 116.652C82.1927 116.434 82.375 116.206 82.5938 115.969L89.457 108.695C91.043 107.018 92.3099 105.514 93.2578 104.184C94.224 102.853 94.9622 101.641 95.4727 100.547C96.0013 99.4532 96.3477 98.4597 96.5117 97.5665C96.6758 96.6732 96.7578 95.8347 96.7578 95.0508C96.7578 94.267 96.6302 93.5287 96.375 92.836C96.1198 92.1251 95.7461 91.5053 95.2539 90.9766C94.7799 90.448 94.1784 90.0287 93.4492 89.7188C92.7201 89.4089 91.8815 89.254 90.9336 89.254C89.8216 89.254 88.819 89.4089 87.9258 89.7188C87.0508 90.0287 86.276 90.3659 85.6016 90.7305C84.9453 91.0951 84.3893 91.4324 83.9336 91.7422C83.4961 92.0521 83.168 92.2071 82.9492 92.2071C82.8216 92.2071 82.7031 92.1706 82.5938 92.0977C82.5026 92.0248 82.4206 91.9063 82.3477 91.7422C82.293 91.5782 82.2474 91.3594 82.2109 91.086C82.1745 90.8126 82.1562 90.4844 82.1562 90.1016C82.1562 89.8282 82.1654 89.5912 82.1836 89.3907C82.2018 89.1902 82.2292 89.017 82.2656 88.8712C82.3203 88.7253 82.3841 88.5886 82.457 88.461C82.5299 88.3334 82.6758 88.1784 82.8945 87.9962C83.1133 87.7956 83.487 87.5313 84.0156 87.2032C84.5625 86.8751 85.237 86.5561 86.0391 86.2462C86.8594 85.918 87.7526 85.6446 88.7188 85.4258C89.7031 85.2071 90.7331 85.0977 91.8086 85.0977C93.5221 85.0977 95.0169 85.3438 96.293 85.836C97.5872 86.31 98.6536 86.9662 99.4922 87.8047C100.349 88.6433 100.987 89.6186 101.406 90.7305C101.826 91.8425 102.035 93.0274 102.035 94.2852C102.035 95.4154 101.935 96.5456 101.734 97.6758C101.534 98.7878 101.105 100 100.449 101.313C99.8112 102.607 98.8815 104.056 97.6602 105.66C96.4388 107.246 94.8164 109.078 92.793 111.156L87.1875 117.008H102.582C102.728 117.008 102.865 117.053 102.992 117.145C103.138 117.218 103.257 117.336 103.348 117.5C103.457 117.664 103.53 117.874 103.566 118.129C103.621 118.366 103.648 118.648 103.648 118.977Z" fill="white"/>
<path d="M69.7383 112.879V107.879H64.7383V112.879H69.7383ZM69.6289 120.699L73.5333 123.823L73.6688 123.653L73.7892 123.473L69.6289 120.699ZM66.3203 121.109L65.7001 126.071L66.3203 121.109ZM65.6094 120.945L63.5787 125.514L63.6649 125.553L63.7524 125.588L65.6094 120.945ZM65.2539 120.699L60.7818 122.935L61.0187 123.409L61.3496 123.823L65.2539 120.699ZM65.1719 112.879H70.1719V107.879H65.1719V112.879ZM49.6133 112.496L45.6133 115.496L45.7263 115.647L45.8504 115.789L49.6133 112.496ZM49.3672 111.867L44.411 112.528L44.4325 112.689L44.4643 112.848L49.3672 111.867ZM49.4492 109.133L54.2999 110.346L54.311 110.301L54.3212 110.257L49.4492 109.133ZM49.668 108.477L54.2198 110.546L54.2527 110.473L54.2834 110.4L49.668 108.477ZM49.9961 107.793L45.6952 105.243L45.6426 105.332L45.5937 105.423L49.9961 107.793ZM62.7383 86.3008L58.4983 83.6508L58.4672 83.7005L58.4374 83.7509L62.7383 86.3008ZM63.1211 85.918L60.5486 81.6306L60.4466 81.6918L60.3476 81.7578L63.1211 85.918ZM64.8164 85.5079L65.0434 90.5027L65.1564 90.4976L65.2691 90.4873L64.8164 85.5079ZM67.7969 85.5352L67.1767 90.4966L67.2872 90.5104L67.3981 90.5193L67.7969 85.5352ZM69.5195 86.0001L66.227 89.7629L66.3688 89.887L66.5195 90.0001L69.5195 86.0001ZM69.7383 108.996H64.7383V113.996H69.7383V108.996ZM74.4688 109.488L70.098 111.917L70.1796 112.063L70.2709 112.205L74.4688 109.488ZM65.1719 89.5821H70.1719V84.5821H65.1719V89.5821ZM65.1172 89.5821V84.5821H62.2691L60.8164 87.0319L65.1172 89.5821ZM53.6055 108.996L49.3047 106.446L44.8278 113.996H53.6055V108.996ZM65.1719 108.996V113.996H70.1719V108.996H65.1719ZM69.7695 110.938C69.7695 110.995 69.7644 110.939 69.7911 110.8C69.8177 110.662 69.8876 110.38 70.0715 110.031L78.9207 114.688C79.6303 113.34 79.7695 111.954 79.7695 110.938H69.7695ZM70.0715 110.031C70.2622 109.668 70.6502 109.094 71.3605 108.612C72.1153 108.1 72.9608 107.879 73.7305 107.879V117.879C76.3097 117.879 78.0745 116.296 78.9207 114.688L70.0715 110.031ZM73.7305 107.879H69.7383V117.879H73.7305V107.879ZM64.7383 112.879V120.316H74.7383V112.879H64.7383ZM64.7383 120.316C64.7383 119.587 64.9349 118.726 65.4687 117.926L73.7892 123.473C74.4687 122.453 74.7383 121.337 74.7383 120.316H64.7383ZM65.7246 117.576C66.1111 117.093 66.5114 116.793 66.7747 116.623C67.0434 116.451 67.266 116.352 67.3891 116.303L71.103 125.588C71.605 125.387 72.6691 124.903 73.5333 123.823L65.7246 117.576ZM67.3891 116.303C67.5842 116.225 67.7324 116.186 67.8073 116.169C67.8853 116.151 67.9249 116.147 67.915 116.148L69.1553 126.071C69.6832 126.005 70.3798 125.877 71.103 125.588L67.3891 116.303ZM67.915 116.148C67.9225 116.147 67.8856 116.152 67.7925 116.156C67.702 116.161 67.5775 116.164 67.4141 116.164V126.164C67.9777 126.164 68.5785 126.143 69.1553 126.071L67.915 116.148ZM67.4141 116.164C67.2629 116.164 67.147 116.161 67.0622 116.157C66.9756 116.152 66.9381 116.148 66.9405 116.148L65.7001 126.071C66.2706 126.142 66.8589 126.164 67.4141 126.164V116.164ZM66.9405 116.148C66.9305 116.147 66.9702 116.151 67.0481 116.169C67.123 116.186 67.2712 116.225 67.4663 116.303L63.7524 125.588C64.4757 125.877 65.1722 126.005 65.7001 126.071L66.9405 116.148ZM67.6401 116.376C67.7772 116.437 67.9924 116.544 68.2435 116.718C68.4935 116.891 68.8305 117.166 69.1583 117.576L61.3496 123.823C62.12 124.786 63.041 125.275 63.5787 125.514L67.6401 116.376ZM69.726 118.463C70.0792 119.17 70.1719 119.834 70.1719 120.316H60.1719C60.1719 121.09 60.3192 122.01 60.7818 122.935L69.726 118.463ZM70.1719 120.316V112.879H60.1719V120.316H70.1719ZM65.1719 107.879H50.5703V117.879H65.1719V107.879ZM50.5703 107.879C50.7272 107.879 51.1863 107.893 51.7791 108.115L48.2678 117.479C49.1522 117.81 49.976 117.879 50.5703 117.879V107.879ZM51.7791 108.115C52.5734 108.413 53.0904 108.877 53.3762 109.204L45.8504 115.789C46.3914 116.407 47.1818 117.071 48.2678 117.479L51.7791 108.115ZM53.6133 109.496C53.8842 109.857 54.0393 110.186 54.1259 110.408C54.2133 110.631 54.253 110.801 54.2701 110.887L44.4643 112.848C44.5951 113.502 44.8817 114.521 45.6133 115.496L53.6133 109.496ZM54.3233 111.206C54.3273 111.236 54.3237 111.218 54.3196 111.139C54.3157 111.064 54.3125 110.953 54.3125 110.801H44.3125C44.3125 111.347 44.3336 111.947 44.411 112.528L54.3233 111.206ZM54.3125 110.801C54.3125 110.538 54.3195 110.342 54.3288 110.204L44.3509 109.539C44.3237 109.947 44.3125 110.371 44.3125 110.801H54.3125ZM54.3288 110.204C54.3298 110.188 54.3302 110.192 54.3269 110.214C54.3236 110.236 54.316 110.281 54.2999 110.346L44.5985 107.92C44.4582 108.481 44.3849 109.029 44.3509 109.539L54.3288 110.204ZM54.3212 110.257C54.3086 110.312 54.28 110.413 54.2198 110.546L45.1161 106.408C44.8736 106.941 44.6992 107.48 44.5773 108.009L54.3212 110.257ZM54.2834 110.4C54.3031 110.352 54.3389 110.274 54.3984 110.164L45.5937 105.423C45.3981 105.786 45.2151 106.163 45.0526 106.554L54.2834 110.4ZM54.297 110.343L67.0392 88.8508L58.4374 83.7509L45.6952 105.243L54.297 110.343ZM66.9783 88.9508C66.642 89.4889 66.2347 89.8515 65.8946 90.0783L60.3476 81.7578C59.6793 82.2033 59.0169 82.8211 58.4983 83.6508L66.9783 88.9508ZM65.6936 90.2055C65.368 90.4008 65.1315 90.4655 65.093 90.4758L62.5164 80.8134C61.931 80.9695 61.2387 81.2165 60.5486 81.6306L65.6936 90.2055ZM65.093 90.4758C65.0401 90.4899 64.9997 90.4985 64.9741 90.5035C64.9484 90.5085 64.934 90.5105 64.9323 90.5107C64.9305 90.5109 64.9388 90.5098 64.9581 90.5081C64.9773 90.5064 65.0055 90.5044 65.0434 90.5027L64.5894 80.513C63.9657 80.5414 63.2473 80.6185 62.5164 80.8134L65.093 90.4758ZM65.2691 90.4873C65.4773 90.4684 65.7931 90.4532 66.2383 90.4532V80.4532C65.5897 80.4532 64.9576 80.4744 64.3637 80.5284L65.2691 90.4873ZM66.2383 90.4532C66.7015 90.4532 67.0036 90.475 67.1767 90.4966L68.417 80.5738C67.7151 80.4861 66.9781 80.4532 66.2383 80.4532V90.4532ZM67.3981 90.5193C67.5372 90.5304 67.6251 90.5415 67.6704 90.5483C67.6919 90.5515 67.697 90.5527 67.6879 90.5509C67.6792 90.5492 67.6494 90.543 67.6023 90.5305L70.1789 80.8681C69.4925 80.6851 68.7928 80.5989 68.1956 80.5511L67.3981 90.5193ZM67.6023 90.5305C67.4499 90.4898 66.8621 90.3186 66.227 89.7629L72.8121 82.2372C71.8853 81.4263 70.8782 81.0546 70.1789 80.8681L67.6023 90.5305ZM66.5195 90.0001C66.1094 89.6925 65.6353 89.2191 65.2718 88.5376C64.8993 87.8391 64.7383 87.0991 64.7383 86.4102H74.7383C74.7383 84.4814 73.7634 82.933 72.5195 82.0001L66.5195 90.0001ZM64.7383 86.4102V108.996H74.7383V86.4102H64.7383ZM69.7383 113.996H73.7305V103.996H69.7383V113.996ZM73.7305 113.996C72.9481 113.996 72.1127 113.772 71.374 113.279C70.6799 112.817 70.2923 112.266 70.098 111.917L78.8395 107.06C77.9963 105.542 76.2696 103.996 73.7305 103.996V113.996ZM70.2709 112.205C69.9434 111.699 69.8343 111.271 69.7987 111.099C69.761 110.918 69.7695 110.846 69.7695 110.938H79.7695C79.7695 109.97 79.6584 108.305 78.6666 106.772L70.2709 112.205ZM65.1719 84.5821H65.1172V94.5821H65.1719V84.5821ZM60.8164 87.0319L49.3047 106.446L57.9062 111.546L69.418 92.1323L60.8164 87.0319ZM53.6055 113.996H65.1719V103.996H53.6055V113.996ZM70.1719 108.996V89.5821H60.1719V108.996H70.1719ZM103.566 119.852L98.6774 118.804L98.6411 118.973L98.6167 119.145L103.566 119.852ZM103.375 120.508L98.9029 118.272L98.8521 118.373L98.8059 118.477L103.375 120.508ZM103.047 120.891L105.528 125.232L105.613 125.183L105.697 125.131L103.047 120.891ZM82.375 120.918L80.518 125.56L80.7835 125.667L81.0594 125.742L82.375 120.918ZM81.8828 120.59L78.1199 123.882L78.2296 124.008L78.3473 124.125L81.8828 120.59ZM81.582 119.961L76.6791 120.942L76.7101 121.097L76.7509 121.249L81.582 119.961ZM81.5273 117.992L76.5712 117.331L76.5494 117.495L76.5384 117.66L81.5273 117.992ZM81.7188 117.281L86.2706 119.35L86.3035 119.278L86.3341 119.204L81.7188 117.281ZM82.0469 116.652L77.8866 113.879L77.8571 113.923L77.8286 113.968L82.0469 116.652ZM82.5938 115.969L78.9572 112.537L78.9383 112.557L78.9197 112.577L82.5938 115.969ZM89.457 108.695L85.8242 105.26L85.8204 105.264L89.457 108.695ZM93.2578 104.184L89.2117 101.246L89.1985 101.264L89.1854 101.283L93.2578 104.184ZM95.4727 100.547L90.9709 98.3711L90.9561 98.4017L90.9417 98.4325L95.4727 100.547ZM96.375 92.836L91.669 94.5253L91.6761 94.545L91.6833 94.5645L96.375 92.836ZM95.2539 90.9766L91.5311 94.3143L91.5624 94.3493L91.5944 94.3837L95.2539 90.9766ZM87.9258 89.7188L86.2869 84.995L86.2717 85.0003L86.2565 85.0057L87.9258 89.7188ZM85.6016 90.7305L83.224 86.332L83.1986 86.3457L83.1733 86.3597L85.6016 90.7305ZM83.9336 91.7422L81.122 87.6076L81.0825 87.6345L81.0435 87.6621L83.9336 91.7422ZM82.5938 92.0977L79.4703 96.0021L79.6397 96.1376L79.8202 96.258L82.5938 92.0977ZM82.3477 91.7422L77.6042 93.3234L77.6806 93.5524L77.7786 93.7729L82.3477 91.7422ZM82.2656 88.8712L77.584 87.1155L77.484 87.3822L77.4149 87.6585L82.2656 88.8712ZM82.8945 87.9962L86.0955 91.8373L86.1861 91.7617L86.2732 91.6819L82.8945 87.9962ZM84.0156 87.2032L81.4431 82.9157L81.4108 82.9351L81.3788 82.955L84.0156 87.2032ZM86.0391 86.2462L87.8411 90.9101L87.8686 90.8995L87.896 90.8885L86.0391 86.2462ZM88.7188 85.4258L87.6341 80.5449L87.6244 80.5471L87.6146 80.5493L88.7188 85.4258ZM96.293 85.836L94.4936 90.501L94.5335 90.5164L94.5736 90.5311L96.293 85.836ZM99.4922 87.8047L95.9567 91.3403L95.9757 91.3593L95.9949 91.3781L99.4922 87.8047ZM101.734 97.6758L106.655 98.5632L106.657 98.5493L101.734 97.6758ZM100.449 101.313L95.9771 99.0765L95.9708 99.0891L95.9645 99.1018L100.449 101.313ZM97.6602 105.66L101.622 108.711L101.63 108.7L101.638 108.689L97.6602 105.66ZM92.793 111.156L89.2106 107.668L89.1964 107.683L89.1823 107.698L92.793 111.156ZM87.1875 117.008L83.5769 113.549L75.4738 122.008H87.1875V117.008ZM102.992 117.145L100.086 121.213L100.405 121.441L100.756 121.617L102.992 117.145ZM103.348 117.5L98.9769 119.928L99.0751 120.105L99.1874 120.274L103.348 117.5ZM103.566 118.129L98.6167 118.836L98.6467 119.046L98.6945 119.253L103.566 118.129ZM98.6484 118.977C98.6484 119.003 98.6473 119.001 98.6498 118.975C98.6522 118.949 98.659 118.89 98.6774 118.804L108.455 120.899C108.6 120.225 108.648 119.571 108.648 118.977H98.6484ZM98.6167 119.145C98.637 119.002 98.6997 118.678 98.9029 118.272L107.847 122.744C108.233 121.973 108.423 121.212 108.516 120.559L98.6167 119.145ZM98.8059 118.477C99.1192 117.772 99.6585 117.112 100.397 116.651L105.697 125.131C106.727 124.487 107.485 123.572 107.944 122.539L98.8059 118.477ZM100.566 116.549C101.279 116.142 102.007 116 102.609 116V126C103.54 126 104.559 125.785 105.528 125.232L100.566 116.549ZM102.609 116H83.0586V126H102.609V116ZM83.0586 116C83.151 116 83.378 116.009 83.6906 116.094L81.0594 125.742C81.773 125.936 82.4558 126 83.0586 126V116ZM84.232 116.276C84.7099 116.467 85.11 116.746 85.4183 117.054L78.3473 124.125C78.9473 124.725 79.6755 125.223 80.518 125.56L84.232 116.276ZM85.6457 117.297C86.2014 117.932 86.3726 118.52 86.4132 118.673L76.7509 121.249C76.9373 121.949 77.3091 122.956 78.1199 123.882L85.6457 117.297ZM86.4849 118.98C86.4942 119.027 86.4992 119.06 86.5016 119.078C86.5041 119.097 86.5046 119.104 86.5042 119.099C86.5037 119.094 86.5027 119.079 86.5017 119.053C86.5008 119.027 86.5 118.993 86.5 118.949H76.5C76.5 119.55 76.5386 120.239 76.6791 120.942L86.4849 118.98ZM86.5 118.949C86.5 118.662 86.5074 118.458 86.5163 118.325L76.5384 117.66C76.5109 118.073 76.5 118.507 76.5 118.949H86.5ZM86.4835 118.653C86.4707 118.749 86.4263 119.008 86.2706 119.35L77.1669 115.212C76.8289 115.956 76.6569 116.688 76.5712 117.331L86.4835 118.653ZM86.3341 119.204C86.3147 119.251 86.2911 119.296 86.2652 119.337L77.8286 113.968C77.5475 114.41 77.3051 114.874 77.1034 115.358L86.3341 119.204ZM86.2071 119.426C86.1917 119.449 86.1868 119.454 86.1973 119.441C86.2077 119.428 86.2301 119.401 86.2678 119.36L78.9197 112.577C78.5612 112.966 78.2063 113.399 77.8866 113.879L86.2071 119.426ZM86.2303 119.4L93.0936 112.127L85.8204 105.264L78.9572 112.537L86.2303 119.4ZM93.0899 112.131C94.7754 110.348 96.2063 108.662 97.3302 107.085L89.1854 101.283C88.4135 102.366 87.3106 103.688 85.8242 105.26L93.0899 112.131ZM97.3039 107.121C98.3952 105.618 99.3197 104.127 100.004 102.661L90.9417 98.4325C90.6048 99.1545 90.0527 100.088 89.2117 101.246L97.3039 107.121ZM99.9744 102.723C100.637 101.352 101.162 99.9236 101.429 98.4697L91.594 96.6632C91.5329 96.9957 91.3657 97.5543 90.9709 98.3711L99.9744 102.723ZM101.429 98.4697C101.64 97.3242 101.758 96.1808 101.758 95.0508H91.7578C91.7578 95.4886 91.7117 96.0223 91.594 96.6632L101.429 98.4697ZM101.758 95.0508C101.758 93.7139 101.538 92.3871 101.067 91.1075L91.6833 94.5645C91.7222 94.6703 91.7578 94.8201 91.7578 95.0508H101.758ZM101.081 91.1467C100.608 89.8279 99.8882 88.6166 98.9134 87.5695L91.5944 94.3837C91.604 94.3939 91.632 94.4222 91.669 94.5253L101.081 91.1467ZM98.9768 87.6389C97.9595 86.5042 96.7299 85.6803 95.4049 85.1172L91.4935 94.3205C91.5658 94.3512 91.5922 94.3704 91.5883 94.3677C91.5867 94.3666 91.5795 94.3614 91.5685 94.3517C91.5574 94.3419 91.5446 94.3294 91.5311 94.3143L98.9768 87.6389ZM95.4049 85.1172C93.9483 84.4981 92.4241 84.254 90.9336 84.254V94.254C91.3389 94.254 91.4918 94.3197 91.4935 94.3205L95.4049 85.1172ZM90.9336 84.254C89.3597 84.254 87.7908 84.4733 86.2869 84.995L89.5646 94.4426C89.8472 94.3446 90.2835 94.254 90.9336 94.254V84.254ZM86.2565 85.0057C85.1866 85.3846 84.1676 85.8219 83.224 86.332L87.9791 95.1291C88.3845 94.91 88.915 94.6728 89.595 94.4319L86.2565 85.0057ZM83.1733 86.3597C82.4292 86.7731 81.7372 87.1893 81.122 87.6076L86.7451 95.8769C87.0415 95.6754 87.4614 95.4171 88.0298 95.1013L83.1733 86.3597ZM81.0435 87.6621C80.9618 87.72 81.0318 87.6606 81.2243 87.5696C81.3267 87.5213 81.5135 87.4403 81.7708 87.3674C82.0212 87.2965 82.4293 87.2071 82.9492 87.2071V97.2071C84.129 97.2071 85.0479 96.823 85.4944 96.6121C86.0151 96.3663 86.4679 96.0744 86.8237 95.8224L81.0435 87.6621ZM82.9492 87.2071C83.8398 87.2071 84.6815 87.4803 85.3673 87.9375L79.8202 96.258C80.7247 96.8609 81.8034 97.2071 82.9492 97.2071V87.2071ZM85.7172 88.1934C86.127 88.5212 86.4018 88.8581 86.5748 89.1081C86.7487 89.3592 86.8558 89.5744 86.9167 89.7116L77.7786 93.7729C78.0176 94.3106 78.5072 95.2316 79.4703 96.0021L85.7172 88.1934ZM87.0911 90.1611C87.1397 90.3071 87.1613 90.4065 87.1674 90.4354C87.1743 90.4685 87.1728 90.4682 87.1671 90.4252L77.2548 91.7468C77.3115 92.1721 77.409 92.7376 77.6042 93.3234L87.0911 90.1611ZM87.1671 90.4252C87.1687 90.4371 87.1655 90.4167 87.1622 90.3575C87.159 90.2993 87.1562 90.2152 87.1562 90.1016H77.1562C77.1562 90.6276 77.1804 91.1887 77.2548 91.7468L87.1671 90.4252ZM87.1562 90.1016C87.1562 90.0195 87.1576 89.9567 87.1594 89.911C87.1612 89.8647 87.1631 89.8434 87.1631 89.8434L77.2041 88.938C77.1684 89.3313 77.1562 89.7265 77.1562 90.1016H87.1562ZM87.1631 89.8434C87.1636 89.8369 87.1623 89.8538 87.1566 89.8902C87.151 89.9259 87.1391 89.9927 87.1163 90.0838L77.4149 87.6585C77.2992 88.1214 77.2384 88.5613 77.2041 88.938L87.1631 89.8434ZM86.9473 90.6268C86.9136 90.7165 86.8656 90.8238 86.7982 90.9417L78.1158 85.9803C77.9026 86.3534 77.727 86.7341 77.584 87.1155L86.9473 90.6268ZM86.7982 90.9417C86.5738 91.3345 86.3501 91.5823 86.2621 91.6759C86.2077 91.7337 86.1649 91.7746 86.1394 91.7982C86.1133 91.8224 86.0976 91.8355 86.0955 91.8373L79.6936 84.155C79.3634 84.4302 78.647 85.0507 78.1158 85.9803L86.7982 90.9417ZM86.2732 91.6819C86.2126 91.7374 86.1753 91.7665 86.1741 91.7675C86.1709 91.77 86.1866 91.7576 86.2262 91.7296C86.3082 91.6716 86.4453 91.5799 86.6524 91.4514L81.3788 82.955C80.8075 83.3096 80.0983 83.7765 79.5159 84.3104L86.2732 91.6819ZM86.5881 91.4907C86.8216 91.3506 87.2205 91.1499 87.8411 90.9101L84.2371 81.5822C83.2534 81.9622 82.3034 82.3996 81.4431 82.9157L86.5881 91.4907ZM87.896 90.8885C88.4447 90.6691 89.0831 90.4699 89.8229 90.3024L87.6146 80.5493C86.4221 80.8193 85.2741 81.167 84.1821 81.6038L87.896 90.8885ZM89.8034 90.3068C90.4089 90.1722 91.0738 90.0977 91.8086 90.0977V80.0977C90.3924 80.0977 88.9974 80.242 87.6341 80.5449L89.8034 90.3068ZM91.8086 90.0977C93.0565 90.0977 93.9164 90.2784 94.4936 90.501L98.0923 81.171C96.1175 80.4093 93.9878 80.0977 91.8086 80.0977V90.0977ZM94.5736 90.5311C95.2956 90.7955 95.709 91.0926 95.9567 91.3403L103.028 84.2692C101.598 82.8398 99.8789 81.8245 98.0123 81.1409L94.5736 90.5311ZM95.9949 91.3781C96.3355 91.7115 96.568 92.0707 96.7278 92.4945L106.085 88.9665C105.406 87.1664 104.362 85.5751 102.99 84.2314L95.9949 91.3781ZM96.7278 92.4945C96.9223 93.0104 97.0352 93.5944 97.0352 94.2852H107.035C107.035 92.4604 106.729 90.6746 106.085 88.9665L96.7278 92.4945ZM97.0352 94.2852C97.0352 95.118 96.9614 95.956 96.8113 96.8024L106.657 98.5493C106.908 97.1353 107.035 95.7128 107.035 94.2852H97.0352ZM96.8137 96.7885C96.7186 97.3162 96.4802 98.0702 95.9771 99.0765L104.921 103.549C105.731 101.93 106.349 100.259 106.655 98.5632L96.8137 96.7885ZM95.9645 99.1018C95.5121 100.019 94.7789 101.191 93.682 102.631L101.638 108.689C102.984 106.922 104.11 105.194 104.934 103.523L95.9645 99.1018ZM93.6987 102.609C92.6345 103.991 91.1534 105.673 89.2106 107.668L96.3753 114.644C98.4794 112.483 100.243 110.501 101.622 108.711L93.6987 102.609ZM89.1823 107.698L83.5769 113.549L90.7981 120.467L96.4036 114.615L89.1823 107.698ZM87.1875 122.008H102.582V112.008H87.1875V122.008ZM102.582 122.008C101.606 122.008 100.739 121.68 100.086 121.213L105.898 113.076C104.99 112.427 103.85 112.008 102.582 112.008V122.008ZM100.756 121.617C99.8699 121.174 99.2989 120.508 98.9769 119.928L107.718 115.072C107.214 114.164 106.406 113.261 105.228 112.672L100.756 121.617ZM99.1874 120.274C98.7757 119.656 98.6546 119.102 98.6167 118.836L108.516 117.422C108.405 116.646 108.138 115.672 107.508 114.727L99.1874 120.274ZM98.6945 119.253C98.6657 119.129 98.6551 119.04 98.6512 119C98.6472 118.959 98.6484 118.949 98.6484 118.977H108.648C108.648 118.392 108.602 117.713 108.438 117.005L98.6945 119.253Z" fill="#242546"/>
<path d="M82.4789 36.0752C80.8021 37.4361 77.9959 39.1561 77.9959 39.1561C77.9959 39.1561 76.3642 34.6786 75.6037 31.7844C74.7963 28.7116 74.0514 23.9005 74.0514 23.9005C74.0514 23.9005 73.2208 19.5224 73.3235 16.5525L73.3253 16.5001C73.413 13.9625 73.4709 12.2883 74.2503 9.92686C74.9043 7.94521 75.3378 6.77066 76.5365 5.24234C77.723 3.72962 78.6244 3.13056 80.1849 2.32427C81.9286 1.42329 83.0392 1.07995 84.9179 1.1687C86.5851 1.24746 87.5498 1.57271 89.0613 2.45062C90.9162 3.5279 91.9078 4.50224 93.165 6.52726C94.1471 8.10914 94.6457 9.14808 95.0421 11.0963C95.5119 13.4055 95.3337 14.8672 94.9551 17.2098C94.5473 19.7329 93.9559 21.0663 92.9263 23.2956C91.51 26.3623 90.2666 27.738 88.25 30.2173C86.1785 32.764 84.9115 34.1008 82.4789 36.0752Z" stroke="white" stroke-width="2"/>
</svg>
