<svg width="139" height="139" viewBox="0 0 139 139" fill="none" xmlns="http://www.w3.org/2000/svg">
<g filter="url(#filter0_d_1_619)">
<path d="M38.0807 11.0209L41.8322 23.0047L66.6951 15.7483L62.9436 3.76447C62.0609 0.998981 59.0204 -0.584652 56.1271 0.242631L41.7096 4.44995C38.8408 5.30087 37.2225 8.23182 38.0807 11.0209Z" fill="white"/>
<path d="M54.2891 19.3653L66.7206 15.7252L62.9691 3.74147C62.0864 0.975976 59.0459 -0.607729 56.1526 0.219554L48.9438 2.32325L53.2838 16.1743L54.2891 19.3653Z" fill="#8AF3FF"/>
<path d="M17.5579 93.1118C11.1338 103.37 21.2849 115.661 32.9317 112.257C33.1524 112.187 33.4221 112.116 33.6672 112.021C41.1948 109.421 49.3598 113.652 51.2969 121.121C54.3373 132.987 71.1578 134.618 76.5521 123.532C78.2685 120.058 81.3335 117.647 84.8398 116.63C88.3461 115.614 92.2937 115.968 95.702 117.93C106.54 124.265 119.633 113.912 115.318 102.425C112.719 95.3809 116.74 87.7699 124.096 85.619L124.758 85.4299C133.021 83.4444 136.478 75.5261 134.418 68.9551C133.389 65.6933 131.059 62.8096 127.259 61.0841C120.025 57.775 117.328 49.1949 121.448 42.6239C127.872 32.3656 117.721 20.0745 106.074 23.4782C105.853 23.5491 105.583 23.62 105.338 23.7145C97.8106 26.3146 89.6211 22.06 87.7085 14.6144C85.6489 6.64886 77.4348 3.31608 70.6183 5.30156C67.2346 6.2943 64.2433 8.53982 62.4533 12.2035C60.737 15.6781 57.672 18.0654 54.1657 19.0818C50.6594 20.0982 46.7363 19.7672 43.3035 17.8054C32.4413 11.4708 19.3724 21.8236 23.6878 33.311C26.2869 40.3311 22.2656 47.9658 14.9097 50.1167L14.2477 50.3058C1.93889 53.2367 0.246988 69.4515 11.7467 74.6516C18.98 77.9371 21.6772 86.4935 17.5579 93.1118ZM47.9622 74.1552C44.3578 62.6914 51.1008 50.5658 62.9928 47.0912C74.8848 43.6166 87.4633 50.1167 91.0677 61.5805C94.6721 73.0679 87.9292 85.1699 76.0372 88.6444C64.1451 92.119 51.5666 85.6662 47.9622 74.1552Z" fill="#FF5287"/>
<path d="M91.068 61.5805C94.6724 73.0679 87.9295 85.1699 76.0375 88.6444L84.8401 116.63C88.3464 115.614 92.294 115.968 95.7023 117.93C106.54 124.265 119.633 113.912 115.318 102.425C112.719 95.3809 116.74 87.7699 124.096 85.619L124.758 85.4299C133.021 83.4444 136.478 75.5261 134.419 68.9551C133.389 65.6933 131.06 62.8096 127.259 61.0841C120.026 57.775 117.329 49.1949 121.448 42.6239C127.872 32.3656 117.721 20.0745 106.074 23.4782C105.853 23.5491 105.584 23.62 105.338 23.7145C97.8109 26.3146 89.6214 22.06 87.7088 14.6144C85.6492 6.64886 77.4351 3.31608 70.6187 5.30156C67.235 6.2943 64.2436 8.53982 62.4537 12.2035C60.7373 15.6781 57.6723 18.0654 54.166 19.0818L62.9686 47.0912C74.8851 43.6166 87.4636 50.1167 91.068 61.5805Z" fill="#FF2E60"/>
<path d="M37.8608 38.8652C41.1219 44.5144 38.7925 51.629 32.8342 54.4654C32.638 54.56 32.4664 54.6309 32.2703 54.7018C22.1682 58.8855 23.1245 72.9966 33.7169 75.8802" stroke="white" stroke-width="2" stroke-miterlimit="10"/>
<path d="M63.9922 75.8824C63.9922 77.5048 63.7096 78.9723 63.1445 80.2848C62.5794 81.5791 61.7682 82.691 60.7109 83.6207C59.6536 84.5504 58.3503 85.2705 56.8008 85.7809C55.2513 86.2731 53.5013 86.5192 51.5508 86.5192C50.3659 86.5192 49.2539 86.4189 48.2148 86.2184C47.194 86.0361 46.2826 85.8173 45.4805 85.5621C44.6784 85.2887 44.013 85.0153 43.4844 84.7418C42.9557 84.4502 42.6185 84.2405 42.4727 84.1129C42.3451 83.9853 42.2448 83.8577 42.1719 83.7301C42.099 83.6025 42.0352 83.4476 41.9805 83.2653C41.9258 83.083 41.8802 82.8642 41.8438 82.609C41.8255 82.3356 41.8164 82.0074 41.8164 81.6246C41.8164 80.9684 41.8802 80.5127 42.0078 80.2574C42.1354 80.0022 42.3177 79.8746 42.5547 79.8746C42.7188 79.8746 43.0378 80.0205 43.5117 80.3121C44.0039 80.6038 44.6237 80.9228 45.3711 81.2692C46.1367 81.5973 47.0208 81.9072 48.0234 82.1989C49.0443 82.4905 50.1745 82.6364 51.4141 82.6364C52.6172 82.6364 53.6745 82.4814 54.5859 82.1715C55.4974 81.8616 56.263 81.4241 56.8828 80.859C57.5026 80.2939 57.9674 79.6285 58.2773 78.8629C58.5872 78.0791 58.7422 77.2314 58.7422 76.3199C58.7422 75.3173 58.5417 74.415 58.1406 73.6129C57.7578 72.8108 57.1836 72.1181 56.418 71.5348C55.6706 70.9515 54.7409 70.5048 53.6289 70.1949C52.5352 69.8851 51.2865 69.7301 49.8828 69.7301H46.5195C46.3737 69.7301 46.2279 69.7028 46.082 69.6481C45.9544 69.5752 45.8359 69.4658 45.7266 69.3199C45.6354 69.1741 45.5534 68.9827 45.4805 68.7457C45.4258 68.5087 45.3984 68.1989 45.3984 67.816C45.3984 67.4697 45.4258 67.1871 45.4805 66.9684C45.5352 66.7314 45.6081 66.5491 45.6992 66.4215C45.8086 66.2757 45.9271 66.1754 46.0547 66.1207C46.1823 66.0478 46.3281 66.0114 46.4922 66.0114H49.582C50.7852 66.0114 51.8607 65.8564 52.8086 65.5465C53.7747 65.2366 54.5859 64.79 55.2422 64.2067C55.9167 63.6233 56.4271 62.9306 56.7734 62.1285C57.138 61.3082 57.3203 60.3968 57.3203 59.3942C57.3203 58.665 57.2018 57.9723 56.9648 57.316C56.7279 56.6416 56.3724 56.0582 55.8984 55.566C55.4245 55.0739 54.8138 54.691 54.0664 54.4176C53.3372 54.1259 52.4896 53.9801 51.5234 53.9801C50.4661 53.9801 49.4909 54.1442 48.5977 54.4723C47.7227 54.7822 46.9388 55.1194 46.2461 55.484C45.5534 55.8486 44.9792 56.1949 44.5234 56.5231C44.0677 56.833 43.7487 56.9879 43.5664 56.9879C43.4388 56.9879 43.3203 56.9697 43.2109 56.9332C43.1198 56.8785 43.0378 56.7874 42.9648 56.6598C42.9102 56.514 42.8646 56.3226 42.8281 56.0856C42.8099 55.8304 42.8008 55.5022 42.8008 55.1012C42.8008 54.8278 42.8099 54.5908 42.8281 54.3903C42.8464 54.1715 42.8828 53.9892 42.9375 53.8434C42.9922 53.6793 43.056 53.5335 43.1289 53.4059C43.2018 53.2783 43.3203 53.1324 43.4844 52.9684C43.6667 52.7861 44.0221 52.5309 44.5508 52.2028C45.0794 51.8746 45.7266 51.5556 46.4922 51.2457C47.276 50.9176 48.1693 50.6442 49.1719 50.4254C50.1927 50.2067 51.2865 50.0973 52.4531 50.0973C54.0938 50.0973 55.5339 50.3069 56.7734 50.7262C58.013 51.1455 59.043 51.7379 59.8633 52.5035C60.7018 53.2692 61.3216 54.1897 61.7227 55.2653C62.1419 56.3226 62.3516 57.4983 62.3516 58.7926C62.3516 59.9046 62.2057 60.9436 61.9141 61.9098C61.6224 62.8577 61.194 63.7054 60.6289 64.4528C60.0638 65.1819 59.3711 65.8108 58.5508 66.3395C57.7305 66.8499 56.7826 67.2054 55.707 67.4059V67.4606C56.9284 67.5882 58.0404 67.8981 59.043 68.3903C60.0638 68.8642 60.9388 69.4658 61.668 70.1949C62.3971 70.9241 62.9622 71.7809 63.3633 72.7653C63.7826 73.7314 63.9922 74.7705 63.9922 75.8824ZM95.5508 74.5426C95.5508 76.0921 95.3138 77.596 94.8398 79.0543C94.3659 80.4944 93.6367 81.7705 92.6523 82.8824C91.668 83.9762 90.4193 84.8603 88.9062 85.5348C87.3932 86.191 85.6068 86.5192 83.5469 86.5192C82.0703 86.5192 80.7669 86.3369 79.6367 85.9723C78.5065 85.6077 77.5221 85.0882 76.6836 84.4137C75.8451 83.7392 75.1432 82.9098 74.5781 81.9254C74.0312 80.941 73.5846 79.8199 73.2383 78.5621C72.9102 77.3043 72.6732 75.928 72.5273 74.4332C72.3815 72.9384 72.3086 71.3343 72.3086 69.6207C72.3086 68.1077 72.3906 66.5765 72.5547 65.027C72.7188 63.4775 73.0104 61.9827 73.4297 60.5426C73.849 59.1025 74.4141 57.7535 75.125 56.4957C75.8542 55.2197 76.7565 54.1168 77.832 53.1871C78.9258 52.2392 80.2292 51.4918 81.7422 50.9449C83.2552 50.3981 85.0143 50.1246 87.0195 50.1246C87.694 50.1246 88.3776 50.1702 89.0703 50.2614C89.763 50.3343 90.401 50.4436 90.9844 50.5895C91.5677 50.7171 92.0599 50.8629 92.4609 51.027C92.862 51.191 93.1263 51.3278 93.2539 51.4371C93.3815 51.5283 93.4727 51.6377 93.5273 51.7653C93.6003 51.8746 93.6549 52.0022 93.6914 52.1481C93.7279 52.2757 93.7552 52.4306 93.7734 52.6129C93.7917 52.777 93.8008 52.9866 93.8008 53.2418C93.8008 53.5699 93.7917 53.8525 93.7734 54.0895C93.7734 54.3265 93.737 54.5179 93.6641 54.6637C93.6094 54.8095 93.5273 54.9189 93.418 54.9918C93.3268 55.0647 93.1992 55.1012 93.0352 55.1012C92.8346 55.1012 92.5612 55.0374 92.2148 54.9098C91.8685 54.7822 91.4492 54.6455 90.957 54.4996C90.4648 54.3356 89.8633 54.1897 89.1523 54.0621C88.4596 53.9345 87.6484 53.8707 86.7188 53.8707C85.0234 53.8707 83.5651 54.2171 82.3438 54.9098C81.1224 55.6025 80.1198 56.5322 79.3359 57.6989C78.5703 58.8655 77.9961 60.2236 77.6133 61.7731C77.2487 63.3043 77.0391 64.9085 76.9844 66.5856C77.4583 66.3121 77.987 66.0387 78.5703 65.7653C79.1719 65.4918 79.819 65.2457 80.5117 65.027C81.2227 64.8082 81.9701 64.6351 82.7539 64.5074C83.5378 64.3616 84.3763 64.2887 85.2695 64.2887C87.1836 64.2887 88.7969 64.553 90.1094 65.0817C91.4219 65.5921 92.4792 66.3121 93.2812 67.2418C94.1016 68.1533 94.6849 69.2379 95.0312 70.4957C95.3776 71.7353 95.5508 73.0843 95.5508 74.5426ZM90.793 74.9801C90.793 73.9228 90.6836 72.9658 90.4648 72.109C90.2643 71.234 89.918 70.4957 89.4258 69.8942C88.9336 69.2926 88.2773 68.8278 87.457 68.4996C86.6367 68.1715 85.625 68.0074 84.4219 68.0074C83.7474 68.0074 83.0729 68.0712 82.3984 68.1989C81.724 68.3082 81.0677 68.4723 80.4297 68.691C79.8099 68.8916 79.2083 69.1377 78.625 69.4293C78.0599 69.7028 77.5404 70.0035 77.0664 70.3317C77.0664 72.6832 77.2122 74.652 77.5039 76.2379C77.8138 77.8239 78.2513 79.0999 78.8164 80.066C79.3997 81.014 80.1198 81.6976 80.9766 82.1168C81.8333 82.5179 82.8359 82.7184 83.9844 82.7184C85.151 82.7184 86.1628 82.4996 87.0195 82.0621C87.8763 81.6246 88.5872 81.0413 89.1523 80.3121C89.7174 79.5647 90.1276 78.7353 90.3828 77.8239C90.6562 76.8942 90.793 75.9462 90.793 74.9801Z" fill="white"/>
<path d="M63.1445 80.2848L67.7268 82.2855L67.7319 82.2738L67.7369 82.2621L63.1445 80.2848ZM56.8008 85.7809L58.3145 90.5462L58.3399 90.5382L58.3651 90.5299L56.8008 85.7809ZM48.2148 86.2184L49.1623 81.309L49.1281 81.3024L49.0938 81.2962L48.2148 86.2184ZM45.4805 85.5621L43.8671 90.2947L43.9156 90.3112L43.9645 90.3268L45.4805 85.5621ZM43.4844 84.7418L41.069 89.1197L41.1277 89.1521L41.1873 89.1829L43.4844 84.7418ZM42.4727 84.1129L38.9371 87.6484L39.0548 87.7662L39.1801 87.8758L42.4727 84.1129ZM41.8438 82.609L36.8548 82.9416L36.8674 83.1296L36.894 83.3161L41.8438 82.609ZM43.5117 80.3121L40.8912 84.5704L40.9268 84.5923L40.9627 84.6136L43.5117 80.3121ZM45.3711 81.2692L43.2688 85.8057L43.3347 85.8363L43.4015 85.8649L45.3711 81.2692ZM48.0234 82.1989L46.6268 86.9998L46.6383 87.0032L46.6498 87.0065L48.0234 82.1989ZM54.5859 82.1715L52.9764 77.4376L54.5859 82.1715ZM58.2773 78.8629L62.9121 80.7389L62.9197 80.7201L62.9271 80.7012L58.2773 78.8629ZM58.1406 73.6129L53.6282 75.7666L53.648 75.808L53.6685 75.849L58.1406 73.6129ZM56.418 71.5348L53.3416 75.4764L53.3646 75.4943L53.3878 75.5119L56.418 71.5348ZM53.6289 70.1949L52.2659 75.0056L52.2762 75.0085L52.2866 75.0114L53.6289 70.1949ZM46.082 69.6481L43.6013 73.9893L43.9502 74.1886L44.3264 74.3297L46.082 69.6481ZM45.7266 69.3199L41.4866 71.9699L41.5991 72.15L41.7266 72.3199L45.7266 69.3199ZM45.4805 68.7457L40.6085 69.87L40.6488 70.0448L40.7016 70.2162L45.4805 68.7457ZM45.4805 66.9684L50.3312 68.1811L50.3422 68.137L50.3524 68.0927L45.4805 66.9684ZM45.6992 66.4215L41.6992 63.4215L41.6643 63.468L41.6306 63.5153L45.6992 66.4215ZM46.0547 66.1207L48.0243 70.7165L48.2871 70.6038L48.5354 70.4619L46.0547 66.1207ZM52.8086 65.5465L51.2815 60.7854L51.2682 60.7897L51.2549 60.794L52.8086 65.5465ZM55.2422 64.2067L51.9714 60.4248L51.9457 60.4471L51.9204 60.4696L55.2422 64.2067ZM56.7734 62.1285L52.2044 60.0978L52.1936 60.122L52.1831 60.1464L56.7734 62.1285ZM56.9648 57.316L52.2475 58.9735L52.2547 58.9939L52.2621 59.0143L56.9648 57.316ZM54.0664 54.4176L52.2095 59.06L52.2786 59.0876L52.3485 59.1132L54.0664 54.4176ZM48.5977 54.4723L50.2669 59.1854L50.2944 59.1757L50.3217 59.1656L48.5977 54.4723ZM44.5234 56.5231L47.335 60.6577L47.3905 60.62L47.445 60.5807L44.5234 56.5231ZM43.2109 56.9332L40.6385 61.2207L41.1091 61.5031L41.6298 61.6766L43.2109 56.9332ZM42.9648 56.6598L38.2832 58.4154L38.4243 58.7916L38.6236 59.1405L42.9648 56.6598ZM42.8281 56.0856L37.8408 56.4418L37.8553 56.6448L37.8863 56.8459L42.8281 56.0856ZM42.8281 54.3903L47.8076 54.8429L47.8093 54.8242L47.8109 54.8055L42.8281 54.3903ZM42.9375 53.8434L47.6191 55.599L47.6516 55.5123L47.6809 55.4245L42.9375 53.8434ZM43.4844 52.9684L47.0199 56.5039L43.4844 52.9684ZM46.4922 51.2457L48.3682 55.8805L48.3956 55.8694L48.4229 55.8579L46.4922 51.2457ZM49.1719 50.4254L48.1242 45.5364L48.1151 45.5384L48.106 45.5403L49.1719 50.4254ZM59.8633 52.5035L56.4517 56.1588L56.4717 56.1775L56.4919 56.196L59.8633 52.5035ZM61.7227 55.2653L57.0378 57.0122L57.0558 57.0605L57.0748 57.1084L61.7227 55.2653ZM61.9141 61.9098L66.693 63.3802L66.6969 63.3675L66.7007 63.3548L61.9141 61.9098ZM60.6289 64.4528L64.581 67.5156L64.5992 67.4921L64.6172 67.4683L60.6289 64.4528ZM58.5508 66.3395L61.1923 70.5848L61.226 70.5638L61.2593 70.5423L58.5508 66.3395ZM55.707 67.4059L54.7906 62.4906L50.707 63.2519V67.4059H55.707ZM55.707 67.4606H50.707V71.9654L55.1875 72.4335L55.707 67.4606ZM59.043 68.3903L56.8396 72.8786L56.8883 72.9025L56.9374 72.9253L59.043 68.3903ZM61.668 70.1949L65.2035 66.6594L61.668 70.1949ZM63.3633 72.7653L58.7328 74.6517L58.7541 74.704L58.7766 74.7557L63.3633 72.7653ZM58.9922 75.8824C58.9922 76.9166 58.8143 77.6986 58.5521 78.3075L67.7369 82.2621C68.605 80.246 68.9922 78.0931 68.9922 75.8824H58.9922ZM58.5623 78.2841C58.2894 78.909 57.9146 79.4216 57.4093 79.8659L64.0126 87.3756C65.6219 85.9605 66.8695 84.2491 67.7268 82.2855L58.5623 78.2841ZM57.4093 79.8659C56.9321 80.2855 56.2463 80.6992 55.2364 81.0319L58.3651 90.5299C60.4542 89.8417 62.3752 88.8154 64.0126 87.3756L57.4093 79.8659ZM55.2871 81.0155C54.3135 81.3248 53.0869 81.5192 51.5508 81.5192V91.5192C53.9157 91.5192 56.1891 91.2214 58.3145 90.5462L55.2871 81.0155ZM51.5508 81.5192C50.6467 81.5192 49.8546 81.4426 49.1623 81.309L47.2674 91.1278C48.6532 91.3952 50.0851 91.5192 51.5508 91.5192V81.5192ZM49.0938 81.2962C48.2412 81.144 47.5486 80.9732 46.9965 80.7975L43.9645 90.3268C45.0165 90.6615 46.1468 90.9282 47.3359 91.1405L49.0938 81.2962ZM47.0938 80.8296C46.4369 80.6056 46.0192 80.4237 45.7815 80.3007L41.1873 89.1829C42.0069 89.6069 42.9198 89.9718 43.8671 90.2947L47.0938 80.8296ZM45.8998 80.3639C45.7918 80.3044 45.7021 80.2537 45.629 80.2113C45.555 80.1685 45.5049 80.1382 45.4746 80.1194C45.4675 80.115 45.4621 80.1116 45.4583 80.1092C45.4546 80.1068 45.4528 80.1056 45.4528 80.1056C45.4528 80.1057 45.4551 80.1071 45.4595 80.1101C45.4638 80.113 45.4707 80.1177 45.48 80.1242C45.4974 80.1364 45.53 80.1595 45.5736 80.1928C45.6156 80.2249 45.6828 80.2779 45.7652 80.35L39.1801 87.8758C39.8029 88.4207 40.6349 88.8802 41.069 89.1197L45.8998 80.3639ZM46.0082 80.5774C46.1264 80.6955 46.3221 80.9153 46.5131 81.2494L37.8307 86.2108C38.1674 86.8002 38.5637 87.2751 38.9371 87.6484L46.0082 80.5774ZM46.5131 81.2494C46.6744 81.5317 46.7453 81.7474 46.7696 81.8285L37.1913 84.702C37.325 85.1477 37.5235 85.6732 37.8307 86.2108L46.5131 81.2494ZM46.7696 81.8285C46.7898 81.8959 46.7986 81.9371 46.8002 81.9447C46.8019 81.9532 46.799 81.9402 46.7935 81.9019L36.894 83.3161C36.9543 83.7379 37.045 84.214 37.1913 84.702L46.7696 81.8285ZM46.8327 82.2764C46.8241 82.1473 46.8164 81.9363 46.8164 81.6246H36.8164C36.8164 82.0786 36.827 82.5238 36.8548 82.9416L46.8327 82.2764ZM46.8164 81.6246C46.8164 81.4395 46.8266 81.4082 46.816 81.4839C46.81 81.5264 46.7932 81.6337 46.7522 81.7863C46.7127 81.9329 46.6335 82.1864 46.4799 82.4935L37.5357 78.0214C36.833 79.4267 36.8164 80.9511 36.8164 81.6246H46.8164ZM46.4799 82.4935C46.2742 82.9051 45.8633 83.5374 45.1075 84.0665C44.3024 84.6301 43.3916 84.8746 42.5547 84.8746V74.8746C41.4808 74.8746 40.3604 75.1829 39.3729 75.8742C38.4348 76.5308 37.8691 77.3546 37.5357 78.0214L46.4799 82.4935ZM42.5547 84.8746C41.9177 84.8746 41.4469 84.7445 41.2618 84.6886C41.0406 84.6218 40.8912 84.5556 40.8382 84.5314C40.7363 84.4848 40.7404 84.4776 40.8912 84.5704L46.1322 76.0538C45.8091 75.855 45.4167 75.6291 44.9958 75.4366C44.7607 75.3292 43.7939 74.8746 42.5547 74.8746V84.8746ZM40.9627 84.6136C41.6473 85.0193 42.4288 85.4164 43.2688 85.8057L47.4734 76.7326C46.8186 76.4292 46.3605 76.1883 46.0607 76.0107L40.9627 84.6136ZM43.4015 85.8649C44.3935 86.29 45.4757 86.665 46.6268 86.9998L49.4201 77.3979C48.566 77.1494 47.8799 76.9045 47.3407 76.6734L43.4015 85.8649ZM46.6498 87.0065C48.1847 87.445 49.7856 87.6364 51.4141 87.6364V77.6364C50.5634 77.6364 49.9038 77.536 49.397 77.3912L46.6498 87.0065ZM51.4141 87.6364C53.0338 87.6364 54.6548 87.4292 56.1955 86.9054L52.9764 77.4376C52.6942 77.5336 52.2006 77.6364 51.4141 77.6364V87.6364ZM56.1955 86.9054C57.6628 86.4065 59.0534 85.6463 60.2516 84.5538L53.514 77.1642C53.4727 77.2019 53.332 77.3168 52.9764 77.4376L56.1955 86.9054ZM60.2516 84.5538C61.4152 83.4928 62.3171 82.2088 62.9121 80.7389L53.6426 76.9869C53.6178 77.0482 53.59 77.095 53.514 77.1642L60.2516 84.5538ZM62.9271 80.7012C63.4866 79.286 63.7422 77.8092 63.7422 76.3199H53.7422C53.7422 76.6536 53.6878 76.8721 53.6275 77.0246L62.9271 80.7012ZM63.7422 76.3199C63.7422 74.6337 63.4001 72.9516 62.6128 71.3768L53.6685 75.849C53.6832 75.8784 53.7422 76.0009 53.7422 76.3199H63.7422ZM62.653 71.4593C61.9001 69.8818 60.7921 68.5816 59.4482 67.5576L53.3878 75.5119C53.5751 75.6547 53.6155 75.7399 53.6282 75.7666L62.653 71.4593ZM59.4943 67.5932C58.1327 66.5305 56.5794 65.8267 54.9712 65.3785L52.2866 75.0114C52.9023 75.183 53.2084 75.3724 53.3416 75.4764L59.4943 67.5932ZM54.9919 65.3843C53.3652 64.9234 51.644 64.7301 49.8828 64.7301V74.7301C50.9289 74.7301 51.7051 74.8467 52.2659 75.0056L54.9919 65.3843ZM49.8828 64.7301H46.5195V74.7301H49.8828V64.7301ZM46.5195 64.7301C47.013 64.7301 47.4605 64.825 47.8376 64.9664L44.3264 74.3297C44.9952 74.5805 45.7344 74.7301 46.5195 74.7301V64.7301ZM48.5627 65.3069C49.152 65.6436 49.5219 66.0471 49.7266 66.3199L41.7266 72.3199C42.15 72.8845 42.7569 73.5067 43.6013 73.9893L48.5627 65.3069ZM49.9666 66.67C50.0816 66.854 50.1527 67.0048 50.1924 67.0974C50.2329 67.1919 50.2532 67.2551 50.2594 67.2753L40.7016 70.2162C40.8512 70.7023 41.0887 71.3333 41.4866 71.9699L49.9666 66.67ZM50.3524 67.6214C50.3716 67.7044 50.3828 67.7696 50.3893 67.8126C50.3958 67.8561 50.3986 67.8848 50.3996 67.8961C50.4013 67.916 50.3984 67.8927 50.3984 67.816H40.3984C40.3984 68.3879 40.4347 69.1168 40.6085 69.87L50.3524 67.6214ZM50.3984 67.816C50.3984 67.7702 50.4004 67.777 50.3957 67.826C50.3913 67.8712 50.3769 67.9981 50.3312 68.1811L40.6298 65.7557C40.438 66.5227 40.3984 67.2541 40.3984 67.816H50.3984ZM50.3524 68.0927C50.3351 68.1676 50.2966 68.3158 50.2186 68.5109C50.1419 68.7024 50.0045 68.9964 49.7679 69.3277L41.6306 63.5153C41.0054 64.3905 40.7383 65.2817 40.6085 65.8441L50.3524 68.0927ZM49.6992 69.4215C49.443 69.7631 48.9153 70.3346 48.0243 70.7165L44.0851 61.525C42.9388 62.0163 42.1742 62.7883 41.6992 63.4215L49.6992 69.4215ZM48.5354 70.4619C47.8225 70.8693 47.0948 71.0114 46.4922 71.0114V61.0114C45.5614 61.0114 44.5421 61.2263 43.574 61.7795L48.5354 70.4619ZM46.4922 71.0114H49.582V61.0114H46.4922V71.0114ZM49.582 71.0114C51.2076 71.0114 52.8216 70.8027 54.3623 70.299L51.2549 60.794C50.8997 60.9102 50.3627 61.0114 49.582 61.0114V71.0114ZM54.3357 70.3076C55.8624 69.8179 57.3125 69.0561 58.564 67.9437L51.9204 60.4696C51.8593 60.5239 51.687 60.6553 51.2815 60.7854L54.3357 70.3076ZM58.5129 67.9885C59.7451 66.9229 60.7124 65.6191 61.3637 64.1107L52.1831 60.1464C52.1417 60.2422 52.0883 60.3238 51.9714 60.4248L58.5129 67.9885ZM61.3425 64.1592C62.0227 62.6287 62.3203 61.0143 62.3203 59.3942H52.3203C52.3203 59.7792 52.2533 59.9878 52.2044 60.0978L61.3425 64.1592ZM62.3203 59.3942C62.3203 58.1124 62.11 56.8429 61.6676 55.6178L52.2621 59.0143C52.2936 59.1016 52.3203 59.2176 52.3203 59.3942H62.3203ZM61.6821 55.6586C61.2187 54.3395 60.4945 53.1305 59.5 52.0978L52.2968 59.0342C52.2894 59.0265 52.2809 59.0168 52.2723 59.0057C52.2637 58.9945 52.2565 58.9839 52.2508 58.9745C52.2385 58.9544 52.2395 58.9505 52.2475 58.9735L61.6821 55.6586ZM59.5 52.0978C58.4194 50.9756 57.1276 50.2134 55.7843 49.722L52.3485 59.1132C52.428 59.1423 52.4485 59.1582 52.4293 59.1462C52.4081 59.1329 52.3577 59.0975 52.2968 59.0342L59.5 52.0978ZM55.9234 49.7752C54.4848 49.1998 52.9838 48.9801 51.5234 48.9801V58.9801C51.9954 58.9801 52.1897 59.0521 52.2095 59.06L55.9234 49.7752ZM51.5234 48.9801C49.9429 48.9801 48.3769 49.2267 46.8736 49.7789L50.3217 59.1656C50.6049 59.0616 50.9894 58.9801 51.5234 58.9801V48.9801ZM46.9284 49.7592C45.8672 50.135 44.8574 50.5646 43.9174 51.0594L48.5748 59.9086C49.0202 59.6742 49.5781 59.4294 50.2669 59.1854L46.9284 49.7592ZM43.9174 51.0594C43.0924 51.4936 42.3037 51.9601 41.6019 52.4654L47.445 60.5807C47.6546 60.4298 48.0144 60.2036 48.5748 59.9086L43.9174 51.0594ZM41.7119 52.3884C41.5875 52.473 41.6154 52.4434 41.7579 52.3742C41.8329 52.3377 42.0047 52.2584 42.2522 52.1818C42.477 52.1124 42.9446 51.9879 43.5664 51.9879V61.9879C44.8373 61.9879 45.8123 61.522 46.1269 61.3692C46.5884 61.1451 47.0037 60.883 47.335 60.6577L41.7119 52.3884ZM43.5664 51.9879C43.9192 51.9879 44.3402 52.0392 44.7921 52.1898L41.6298 61.6766C42.3004 61.9002 42.9584 61.9879 43.5664 61.9879V51.9879ZM45.7834 52.6458C46.6548 53.1686 47.1088 53.8339 47.3061 54.1791L38.6236 59.1405C38.9667 59.7409 39.5848 60.5885 40.6385 61.2207L45.7834 52.6458ZM47.6465 54.9042C47.7084 55.0693 47.7401 55.1917 47.7537 55.2488C47.7681 55.3092 47.7719 55.3378 47.77 55.3253L37.8863 56.8459C37.9502 57.2617 38.0616 57.8244 38.2832 58.4154L47.6465 54.9042ZM47.8154 55.7293C47.809 55.6393 47.8008 55.4418 47.8008 55.1012H37.8008C37.8008 55.5627 37.8108 56.0214 37.8408 56.4418L47.8154 55.7293ZM47.8008 55.1012C47.8008 55.0191 47.8022 54.9562 47.8039 54.9105C47.8057 54.8642 47.8076 54.8429 47.8076 54.8429L37.8487 53.9376C37.8129 54.3309 37.8008 54.7261 37.8008 55.1012H47.8008ZM47.8109 54.8055C47.8069 54.8531 47.7971 54.9447 47.772 55.0701C47.7473 55.1939 47.7023 55.3772 47.6191 55.599L38.2559 52.0878C37.9887 52.8003 37.8875 53.4692 37.8454 53.975L47.8109 54.8055ZM47.6809 55.4245C47.6492 55.5197 47.5862 55.6835 47.4701 55.8866L38.7877 50.9252C38.5258 51.3835 38.3352 51.839 38.1941 52.2622L47.6809 55.4245ZM47.4701 55.8866C47.3404 56.1135 47.2206 56.2706 47.153 56.3538C47.0823 56.4408 47.0325 56.4914 47.0199 56.5039L39.9488 49.4328C39.6294 49.7523 39.1701 50.256 38.7877 50.9252L47.4701 55.8866ZM47.0199 56.5039C46.963 56.5609 46.9157 56.6043 46.8827 56.6337C46.8492 56.6634 46.8238 56.6845 46.809 56.6966C46.7812 56.7191 46.7764 56.7215 46.8037 56.7019C46.8295 56.6834 46.8738 56.6526 46.9404 56.6086C47.0064 56.5651 47.0881 56.5127 47.1876 56.451L41.914 47.9546C41.3881 48.281 40.5821 48.7996 39.9488 49.4328L47.0199 56.5039ZM47.1876 56.451C47.4104 56.3127 47.7867 56.1158 48.3682 55.8805L44.6162 46.611C43.6664 46.9954 42.7484 47.4366 41.914 47.9546L47.1876 56.451ZM48.4229 55.8579C48.8769 55.6679 49.4724 55.4775 50.2377 55.3105L48.106 45.5403C46.8661 45.8109 45.6752 46.1673 44.5615 46.6335L48.4229 55.8579ZM50.2195 55.3144C50.8586 55.1775 51.5981 55.0973 52.4531 55.0973V45.0973C50.9748 45.0973 49.5269 45.2358 48.1242 45.5364L50.2195 55.3144ZM52.4531 55.0973C53.6811 55.0973 54.5598 55.2557 55.1714 55.4626L58.3755 45.9898C56.5079 45.3581 54.5064 45.0973 52.4531 45.0973V55.0973ZM55.1714 55.4626C55.8488 55.6917 56.2302 55.9521 56.4517 56.1588L63.2749 48.8483C61.8557 47.5237 60.1772 46.5992 58.3755 45.9898L55.1714 55.4626ZM56.4919 56.196C56.7378 56.4205 56.9108 56.6718 57.0378 57.0122L66.4076 53.5183C65.7324 51.7077 64.6658 50.1178 63.2346 48.8111L56.4919 56.196ZM57.0748 57.1084C57.2316 57.5038 57.3516 58.0431 57.3516 58.7926H67.3516C67.3516 56.9536 67.0523 55.1413 66.3705 53.4221L57.0748 57.1084ZM57.3516 58.7926C57.3516 59.4644 57.264 60.0123 57.1274 60.4648L66.7007 63.3548C67.1474 61.875 67.3516 60.3447 67.3516 58.7926H57.3516ZM57.1352 60.4394C57.0048 60.8629 56.834 61.1815 56.6406 61.4372L64.6172 67.4683C65.554 66.2292 66.24 64.8525 66.693 63.3802L57.1352 60.4394ZM56.6768 61.3899C56.4783 61.646 56.2142 61.8969 55.8423 62.1366L61.2593 70.5423C62.528 69.7248 63.6493 68.7178 64.581 67.5156L56.6768 61.3899ZM55.9093 62.0942C55.6825 62.2353 55.3348 62.3891 54.7906 62.4906L56.6234 72.3212C58.2303 72.0216 59.7784 71.4645 61.1923 70.5848L55.9093 62.0942ZM50.707 67.4059V67.4606H60.707V67.4059H50.707ZM55.1875 72.4335C55.8815 72.506 56.4154 72.6704 56.8396 72.8786L61.2463 63.9019C59.6653 63.1258 57.9752 62.6703 56.2266 62.4876L55.1875 72.4335ZM56.9374 72.9253C57.4753 73.175 57.8539 73.452 58.1324 73.7305L65.2035 66.6594C64.0237 65.4796 62.6523 64.5534 61.1485 63.8552L56.9374 72.9253ZM58.1324 73.7305C58.3758 73.9738 58.5753 74.2651 58.7328 74.6517L67.9937 70.8788C67.3492 69.2967 66.4185 67.8744 65.2035 66.6594L58.1324 73.7305ZM58.7766 74.7557C58.9081 75.059 58.9922 75.4164 58.9922 75.8824H68.9922C68.9922 74.1246 68.657 72.4039 67.95 70.7748L58.7766 74.7557ZM94.8398 79.0543L99.5892 80.6174L99.5921 80.6086L99.595 80.5998L94.8398 79.0543ZM92.6523 82.8824L96.3688 86.2273L96.3825 86.212L96.3962 86.1966L92.6523 82.8824ZM88.9062 85.5348L90.8958 90.1219L90.919 90.1119L90.942 90.1016L88.9062 85.5348ZM76.6836 84.4137L73.5498 88.3098L76.6836 84.4137ZM74.5781 81.9254L70.2073 84.3536L70.2244 84.3843L70.2419 84.4148L74.5781 81.9254ZM73.2383 78.5621L68.4002 79.8242L68.4087 79.857L68.4177 79.8895L73.2383 78.5621ZM73.4297 60.5426L68.629 59.1449L73.4297 60.5426ZM75.125 56.4957L70.7838 54.015L70.778 54.0252L70.7722 54.0354L75.125 56.4957ZM77.832 53.1871L81.1018 56.9698L81.1067 56.9656L77.832 53.1871ZM89.0703 50.2614L88.418 55.2186L88.4824 55.2271L88.5469 55.2339L89.0703 50.2614ZM90.9844 50.5895L89.7717 55.4402L89.8435 55.4582L89.9159 55.474L90.9844 50.5895ZM93.2539 51.4371L90 55.2334L90.1678 55.3773L90.3477 55.5058L93.2539 51.4371ZM93.5273 51.7653L88.9316 53.7349L89.1124 54.1568L89.3671 54.5388L93.5273 51.7653ZM93.6914 52.1481L88.8407 53.3607L88.8609 53.4416L88.8838 53.5217L93.6914 52.1481ZM93.7734 52.6129L88.7983 53.1104L88.801 53.1378L88.804 53.1651L93.7734 52.6129ZM93.7734 54.0895L88.7882 53.706L88.7734 53.8975V54.0895H93.7734ZM93.6641 54.6637L89.1919 52.4276L89.0746 52.6624L88.9824 52.9081L93.6641 54.6637ZM93.418 54.9918L90.6445 50.8316L90.4639 50.9519L90.2945 51.0875L93.418 54.9918ZM90.957 54.4996L89.3759 59.243L89.4558 59.2697L89.5366 59.2936L90.957 54.4996ZM89.1523 54.0621L88.2465 58.9794L88.2578 58.9815L88.269 58.9835L89.1523 54.0621ZM79.3359 57.6989L75.1857 54.9104L75.1706 54.9329L75.1557 54.9556L79.3359 57.6989ZM77.6133 61.7731L72.7592 60.5738L72.7542 60.5944L72.7492 60.615L77.6133 61.7731ZM76.9844 66.5856L71.987 66.4226L71.694 75.4102L79.483 70.9165L76.9844 66.5856ZM78.5703 65.7653L76.5013 61.2134L76.4746 61.2255L76.4481 61.238L78.5703 65.7653ZM80.5117 65.027L79.0413 60.2481L79.0237 60.2535L79.0061 60.2591L80.5117 65.027ZM82.7539 64.5074L83.5573 69.4425L83.613 69.4334L83.6684 69.4231L82.7539 64.5074ZM90.1094 65.0817L88.2413 69.7196L88.2692 69.7308L88.2971 69.7417L90.1094 65.0817ZM93.2812 67.2418L89.4955 70.508L89.5297 70.5477L89.5648 70.5866L93.2812 67.2418ZM95.0312 70.4957L90.2107 71.8231L90.2132 71.8322L90.2157 71.8413L95.0312 70.4957ZM90.4648 72.109L85.5912 73.2259L85.605 73.2861L85.6203 73.3459L90.4648 72.109ZM82.3984 68.1989L83.1988 73.1344L83.2635 73.1239L83.3279 73.1117L82.3984 68.1989ZM80.4297 68.691L81.9688 73.4483L82.0102 73.4349L82.0513 73.4208L80.4297 68.691ZM78.625 69.4293L80.8028 73.9301L80.832 73.916L80.8611 73.9015L78.625 69.4293ZM77.0664 70.3317L74.2204 66.2207L72.0664 67.7119V70.3317H77.0664ZM77.5039 76.2379L72.5864 77.1423L72.5914 77.1696L72.5967 77.1968L77.5039 76.2379ZM78.8164 80.066L74.5005 82.5905L74.5288 82.6388L74.5581 82.6865L78.8164 80.066ZM80.9766 82.1168L78.7788 86.6079L78.8177 86.6269L78.8569 86.6453L80.9766 82.1168ZM89.1523 80.3121L93.1044 83.375L93.1227 83.3514L93.1406 83.3277L89.1523 80.3121ZM90.3828 77.8239L85.586 76.413L85.5768 76.4443L85.568 76.4757L90.3828 77.8239ZM90.5508 74.5426C90.5508 75.5729 90.3947 76.5549 90.0847 77.5089L99.595 80.5998C100.233 78.637 100.551 76.6113 100.551 74.5426H90.5508ZM90.0905 77.4912C89.8245 78.2992 89.4325 78.9763 88.9085 79.5683L96.3962 86.1966C97.8409 84.5646 98.9072 82.6897 99.5892 80.6174L90.0905 77.4912ZM88.9359 79.5376C88.4756 80.0491 87.8244 80.5428 86.8705 80.968L90.942 90.1016C93.0141 89.1779 94.8604 87.9033 96.3688 86.2273L88.9359 79.5376ZM86.9167 80.9477C86.1671 81.2728 85.0874 81.5192 83.5469 81.5192V91.5192C86.1262 91.5192 88.6193 91.1093 90.8958 90.1219L86.9167 80.9477ZM83.5469 81.5192C82.4701 81.5192 81.7023 81.3849 81.1717 81.2137L78.1017 90.7308C79.8315 91.2888 81.6706 91.5192 83.5469 91.5192V81.5192ZM81.1717 81.2137C80.5625 81.0172 80.1333 80.7717 79.8174 80.5176L73.5498 88.3098C74.911 89.4046 76.4505 90.1982 78.1017 90.7308L81.1717 81.2137ZM79.8174 80.5176C79.4899 80.2542 79.1869 79.9107 78.9144 79.4361L70.2419 84.4148C71.0996 85.9089 72.2002 87.2242 73.5498 88.3098L79.8174 80.5176ZM78.9489 79.4972C78.6229 78.9103 78.3159 78.1681 78.0589 77.2347L68.4177 79.8895C68.8534 81.4718 69.4396 82.9718 70.2073 84.3536L78.9489 79.4972ZM78.0764 77.3C77.824 76.3326 77.6278 75.2197 77.5037 73.9477L67.551 74.9187C67.7185 76.6363 67.9963 78.276 68.4002 79.8242L78.0764 77.3ZM77.5037 73.9477C77.3756 72.6349 77.3086 71.1942 77.3086 69.6207H67.3086C67.3086 71.4743 67.3874 73.242 67.551 74.9187L77.5037 73.9477ZM77.3086 69.6207C77.3086 68.2887 77.3808 66.9332 77.5269 65.5534L67.5825 64.5005C67.4005 66.2197 67.3086 67.9267 67.3086 69.6207H77.3086ZM77.5269 65.5534C77.6609 64.2875 77.8971 63.0848 78.2304 61.9403L68.629 59.1449C68.1237 60.8806 67.7766 62.6675 67.5825 64.5005L77.5269 65.5534ZM78.2304 61.9403C78.5459 60.8563 78.9637 59.8655 79.4778 58.956L70.7722 54.0354C69.8644 55.6416 69.152 57.3487 68.629 59.1449L78.2304 61.9403ZM79.4662 58.9764C79.9241 58.1751 80.469 57.5168 81.1018 56.9698L74.5623 49.4045C73.044 50.7168 71.7842 52.2643 70.7838 54.015L79.4662 58.9764ZM81.1067 56.9656C81.6876 56.4621 82.4418 56.0086 83.4418 55.6472L80.0426 46.2427C78.0165 46.975 76.1639 48.0163 74.5574 49.4087L81.1067 56.9656ZM83.4418 55.6472C84.2943 55.3391 85.4567 55.1246 87.0195 55.1246V45.1246C84.572 45.1246 82.2162 45.457 80.0426 46.2427L83.4418 55.6472ZM87.0195 55.1246C87.4682 55.1246 87.9339 55.1549 88.418 55.2186L89.7226 45.3041C88.8213 45.1855 87.9198 45.1246 87.0195 45.1246V55.1246ZM88.5469 55.2339C89.0428 55.2861 89.4471 55.3591 89.7717 55.4402L92.1971 45.7388C91.3549 45.5282 90.4833 45.3825 89.5937 45.2888L88.5469 55.2339ZM89.9159 55.474C90.3147 55.5612 90.5123 55.632 90.5678 55.6547L94.3541 46.3992C93.6075 46.0938 92.8207 45.8729 92.0529 45.705L89.9159 55.474ZM90.5678 55.6547C90.6868 55.7034 90.707 55.7165 90.6628 55.6937C90.6384 55.681 90.57 55.6449 90.4737 55.5844C90.3856 55.5291 90.2102 55.4137 90 55.2334L96.5079 47.6409C95.6899 46.9398 94.7083 46.5441 94.3541 46.3992L90.5678 55.6547ZM90.3477 55.5058C89.8294 55.1356 89.2824 54.5534 88.9316 53.7349L98.1231 49.7957C97.6629 48.7219 96.9336 47.9209 96.1601 47.3685L90.3477 55.5058ZM89.3671 54.5388C89.08 54.1082 88.9236 53.6922 88.8407 53.3607L98.5421 50.9354C98.3863 50.3122 98.1205 49.6411 97.6876 48.9918L89.3671 54.5388ZM88.8838 53.5217C88.8468 53.3923 88.8264 53.2914 88.8153 53.2289C88.8041 53.1653 88.7996 53.1241 88.7983 53.1104L98.7486 52.1154C98.711 51.7396 98.6415 51.2733 98.499 50.7745L88.8838 53.5217ZM88.804 53.1651C88.8008 53.1361 88.7993 53.117 88.7987 53.1094C88.7982 53.1015 88.7983 53.1015 88.7987 53.1104C88.7995 53.1294 88.8008 53.1718 88.8008 53.2418H98.8008C98.8008 52.8899 98.7893 52.4785 98.7429 52.0608L88.804 53.1651ZM88.8008 53.2418C88.8008 53.4862 88.7937 53.6342 88.7882 53.706L98.7587 54.473C98.7896 54.0708 98.8008 53.6537 98.8008 53.2418H88.8008ZM88.7734 54.0895C88.7734 53.8764 88.7965 53.2185 89.1919 52.4276L98.1362 56.8998C98.6774 55.8173 98.7734 54.7765 98.7734 54.0895H88.7734ZM88.9824 52.9081C89.226 52.2586 89.7291 51.4418 90.6445 50.8316L96.1915 59.1521C97.3256 58.396 97.9928 57.3605 98.3457 56.4193L88.9824 52.9081ZM90.2945 51.0875C91.3882 50.2125 92.5161 50.1012 93.0352 50.1012V60.1012C93.8824 60.1012 95.2655 59.9169 96.5414 58.8962L90.2945 51.0875ZM93.0352 50.1012C93.4354 50.1012 93.716 50.1608 93.8158 50.1841C93.9311 50.211 93.9793 50.2313 93.9434 50.2181L90.4863 59.6015C91.0017 59.7914 91.9406 60.1012 93.0352 60.1012V50.1012ZM93.9434 50.2181C93.4649 50.0418 92.9367 49.8713 92.3775 49.7056L89.5366 59.2936C89.9617 59.4196 90.272 59.5226 90.4863 59.6015L93.9434 50.2181ZM92.5382 49.7562C91.7491 49.4932 90.8989 49.2957 90.0357 49.1408L88.269 58.9835C88.8276 59.0838 89.1806 59.178 89.3759 59.243L92.5382 49.7562ZM90.0582 49.1449C88.9895 48.948 87.8621 48.8707 86.7188 48.8707V58.8707C87.4347 58.8707 87.9298 58.9211 88.2465 58.9794L90.0582 49.1449ZM86.7188 48.8707C84.3376 48.8707 81.9922 49.361 79.877 50.5606L84.8105 59.259C85.138 59.0732 85.7092 58.8707 86.7188 58.8707V48.8707ZM79.877 50.5606C77.9804 51.6363 76.4016 53.1006 75.1857 54.9104L83.4862 60.4873C83.838 59.9637 84.2644 59.5686 84.8105 59.259L79.877 50.5606ZM75.1557 54.9556C74.0387 56.6577 73.2585 58.553 72.7592 60.5738L82.4673 62.9723C82.7337 61.8941 83.102 61.0733 83.5162 60.4421L75.1557 54.9556ZM72.7492 60.615C72.302 62.4933 72.0519 64.4321 71.987 66.4226L81.9817 66.7485C82.0262 65.3849 82.1954 64.1153 82.4773 62.9312L72.7492 60.615ZM79.483 70.9165C79.8151 70.7249 80.2156 70.5161 80.6925 70.2926L76.4481 61.238C75.7584 61.5613 75.1016 61.8994 74.4858 62.2546L79.483 70.9165ZM80.6393 70.3171C81.0406 70.1347 81.498 69.9589 82.0174 69.7949L79.0061 60.2591C78.14 60.5325 77.3031 60.849 76.5013 61.2134L80.6393 70.3171ZM81.9821 69.8059C82.4604 69.6587 82.984 69.5358 83.5573 69.4425L81.9505 59.5724C80.9561 59.7343 79.9849 59.9578 79.0413 60.2481L81.9821 69.8059ZM83.6684 69.4231C84.1172 69.3396 84.6471 69.2887 85.2695 69.2887V59.2887C84.1055 59.2887 82.9583 59.3836 81.8394 59.5918L83.6684 69.4231ZM85.2695 69.2887C86.7555 69.2887 87.6918 69.4983 88.2413 69.7196L91.9774 60.4437C89.9019 59.6078 87.6117 59.2887 85.2695 59.2887V69.2887ZM88.2971 69.7417C88.9606 69.9997 89.3012 70.2829 89.4955 70.508L97.067 63.9757C95.6571 62.3414 93.8832 61.1845 91.9216 60.4216L88.2971 69.7417ZM89.5648 70.5866C89.8323 70.8839 90.0571 71.2654 90.2107 71.8231L99.8518 69.1683C99.3127 67.2105 98.3708 65.4227 96.9977 63.897L89.5648 70.5866ZM90.2157 71.8413C90.4247 72.5891 90.5508 73.4797 90.5508 74.5426H100.551C100.551 72.6888 100.331 70.8815 99.8468 69.1502L90.2157 71.8413ZM95.793 74.9801C95.793 73.5842 95.6492 72.2027 95.3094 70.8721L85.6203 73.3459C85.718 73.7288 85.793 74.2614 85.793 74.9801H95.793ZM95.3385 70.9921C94.9925 69.4823 94.3463 68.0122 93.2956 66.728L85.556 73.0604C85.5285 73.0267 85.5214 73.0084 85.5281 73.0226C85.5358 73.0391 85.5626 73.101 85.5912 73.2259L95.3385 70.9921ZM93.2956 66.728C92.1984 65.387 90.8105 64.4558 89.314 63.8573L85.6001 73.142C85.6804 73.1742 85.6971 73.1906 85.6744 73.1745C85.6634 73.1667 85.6456 73.153 85.6236 73.1326C85.6015 73.1121 85.5784 73.0878 85.556 73.0604L93.2956 66.728ZM89.314 63.8573C87.7314 63.2242 86.0456 63.0074 84.4219 63.0074V73.0074C85.2044 73.0074 85.542 73.1188 85.6001 73.142L89.314 63.8573ZM84.4219 63.0074C83.43 63.0074 82.4444 63.1015 81.469 63.286L83.3279 73.1117C83.7014 73.041 84.0648 73.0074 84.4219 73.0074V63.0074ZM81.5981 63.2633C80.6482 63.4174 79.717 63.6497 78.8081 63.9613L82.0513 73.4208C82.4184 73.2949 82.7997 73.1991 83.1988 73.1344L81.5981 63.2633ZM78.8906 63.9338C78.0314 64.2118 77.1968 64.5532 76.3889 64.9572L80.8611 73.9015C81.2198 73.7221 81.5884 73.5713 81.9688 73.4483L78.8906 63.9338ZM76.4472 64.9285C75.6699 65.3046 74.9245 65.7333 74.2204 66.2207L79.9125 74.4426C80.1563 74.2738 80.4499 74.1009 80.8028 73.9301L76.4472 64.9285ZM72.0664 70.3317C72.0664 72.8622 72.2212 75.1565 72.5864 77.1423L82.4214 75.3335C82.2033 74.1474 82.0664 72.5043 82.0664 70.3317H72.0664ZM72.5967 77.1968C72.9708 79.1111 73.5561 80.9759 74.5005 82.5905L83.1323 77.5416C82.9465 77.2239 82.6568 76.5366 82.4111 75.279L72.5967 77.1968ZM74.5581 82.6865C75.5532 84.3035 76.9383 85.7072 78.7788 86.6079L83.1743 77.6257C83.1947 77.6357 83.2122 77.6463 83.2253 77.6555C83.2383 77.6646 83.2419 77.6687 83.2365 77.6635C83.2261 77.6537 83.1662 77.5942 83.0747 77.4456L74.5581 82.6865ZM78.8569 86.6453C80.5037 87.4161 82.2573 87.7184 83.9844 87.7184V77.7184C83.4146 77.7184 83.163 77.6196 83.0963 77.5884L78.8569 86.6453ZM83.9844 87.7184C85.7754 87.7184 87.5982 87.3808 89.2934 86.5152L84.7456 77.6091C84.7273 77.6185 84.5266 77.7184 83.9844 77.7184V87.7184ZM89.2934 86.5152C90.7762 85.758 92.0696 84.7103 93.1044 83.375L85.2003 77.2493C85.1049 77.3723 84.9764 77.4913 84.7456 77.6091L89.2934 86.5152ZM93.1406 83.3277C94.0871 82.0759 94.7754 80.6798 95.1976 79.172L85.568 76.4757C85.4798 76.7908 85.3478 77.0535 85.164 77.2966L93.1406 83.3277ZM95.1796 79.2347C95.5874 77.8482 95.793 76.4253 95.793 74.9801H85.793C85.793 75.4672 85.7251 75.9401 85.586 76.413L95.1796 79.2347Z" fill="#242546"/>
</g>
<defs>
<filter id="filter0_d_1_619" x="0" y="0" width="139" height="139" filterUnits="userSpaceOnUse" color-interpolation-filters="sRGB">
<feFlood flood-opacity="0" result="BackgroundImageFix"/>
<feColorMatrix in="SourceAlpha" type="matrix" values="0 0 0 0 0 0 0 0 0 0 0 0 0 0 0 0 0 0 127 0" result="hardAlpha"/>
<feOffset dy="4"/>
<feGaussianBlur stdDeviation="2"/>
<feComposite in2="hardAlpha" operator="out"/>
<feColorMatrix type="matrix" values="0 0 0 0 0 0 0 0 0 0 0 0 0 0 0 0 0 0 0.25 0"/>
<feBlend mode="normal" in2="BackgroundImageFix" result="effect1_dropShadow_1_619"/>
<feBlend mode="normal" in="SourceGraphic" in2="effect1_dropShadow_1_619" result="shape"/>
</filter>
</defs>
</svg>
