<svg width="157" height="163" viewBox="0 0 157 163" fill="none" xmlns="http://www.w3.org/2000/svg">
<path d="M156.966 115.303C155.632 142.438 119.488 163.812 76.1157 162.977C32.7429 162.141 -1.29559 139.492 0.0378784 112.356C1.37135 85.1766 37.5153 63.8464 80.8179 64.6821C124.191 65.4737 158.229 88.1233 156.966 115.303Z" fill="#00AB91"/>
<path d="M80.8179 64.637L76.1157 162.976C32.7429 162.14 -1.29559 139.491 0.0378784 112.355C1.37135 85.1755 37.5153 63.8014 80.8179 64.637Z" fill="#008974"/>
<path d="M115.767 48.7172L114.715 70.0914L46.4272 68.816L47.4799 47.4418C47.6905 42.472 54.2876 38.5579 62.2885 38.7339L101.871 39.4814C109.802 39.6134 116.048 43.7915 115.767 48.7172Z" fill="white"/>
<path d="M80.6045 69.4756L46.4958 68.816L47.5485 47.4418C47.7591 42.472 54.3563 38.5579 62.3571 38.7339L82.1486 39.0856L80.9555 63.8022L80.6045 69.4756Z" fill="#8AF3FF"/>
<path d="M103.557 84.2087C121.944 90.5858 134.858 102.504 136.191 116.622" stroke="white" stroke-width="2" stroke-miterlimit="10"/>
<path d="M84.4787 36.0752C82.8019 37.4362 79.9957 39.1561 79.9957 39.1561C79.9957 39.1561 78.364 34.6786 77.6035 31.7844C76.7961 28.7117 76.0511 23.9006 76.0511 23.9006C76.0511 23.9006 75.2206 19.5225 75.3233 16.5526L75.3251 16.5001C75.4128 13.9625 75.4707 12.2883 76.25 9.92692C76.904 7.94527 77.3376 6.77072 78.5363 5.24241C79.7227 3.72968 80.6241 3.13062 82.1846 2.32433C83.9284 1.42335 85.039 1.08001 86.9176 1.16876C88.5849 1.24752 89.5495 1.57277 91.0611 2.45068C92.916 3.52796 93.9075 4.5023 95.1648 6.52732C96.1469 8.1092 96.6454 9.14814 97.0419 11.0964C97.5117 13.4056 97.3334 14.8672 96.9548 17.2099C96.5471 19.733 95.9557 21.0664 94.9261 23.2957C93.5098 26.3624 92.2664 27.738 90.2497 30.2174C88.1783 32.764 86.9113 34.1008 84.4787 36.0752Z" stroke="white" stroke-width="2"/>
<path d="M59.3477 130.141C59.3477 130.487 59.3203 130.779 59.2656 131.016C59.2109 131.253 59.138 131.444 59.0469 131.59C58.9557 131.736 58.8464 131.845 58.7188 131.918C58.6094 131.973 58.4909 132 58.3633 132H39.8789C39.7513 132 39.6328 131.973 39.5234 131.918C39.4141 131.845 39.3047 131.736 39.1953 131.59C39.1042 131.444 39.0312 131.253 38.9766 131.016C38.9219 130.779 38.8945 130.487 38.8945 130.141C38.8945 129.813 38.9219 129.53 38.9766 129.293C39.0312 129.056 39.0951 128.865 39.168 128.719C39.2591 128.555 39.3594 128.436 39.4688 128.363C39.5964 128.272 39.7331 128.227 39.8789 128.227H47.2617V101.32L40.4258 105.395C40.0794 105.577 39.7969 105.686 39.5781 105.723C39.3776 105.759 39.2135 105.723 39.0859 105.613C38.9583 105.486 38.8672 105.285 38.8125 105.012C38.776 104.738 38.7578 104.392 38.7578 103.973C38.7578 103.663 38.7669 103.399 38.7852 103.18C38.8216 102.961 38.8672 102.779 38.9219 102.633C38.9766 102.487 39.0495 102.359 39.1406 102.25C39.25 102.141 39.3867 102.031 39.5508 101.922L47.6992 96.6993C47.7721 96.6447 47.8633 96.5991 47.9727 96.5626C48.082 96.5262 48.2188 96.4897 48.3828 96.4532C48.5469 96.4168 48.7383 96.3986 48.957 96.3986C49.1758 96.3803 49.4492 96.3712 49.7773 96.3712C50.2148 96.3712 50.5794 96.3894 50.8711 96.4259C51.1628 96.4624 51.3906 96.517 51.5547 96.59C51.7188 96.6447 51.8281 96.7267 51.8828 96.8361C51.9375 96.9272 51.9648 97.0275 51.9648 97.1368V128.227H58.3633C58.5091 128.227 58.6458 128.272 58.7734 128.363C58.901 128.436 59.0013 128.555 59.0742 128.719C59.1654 128.865 59.2292 129.056 59.2656 129.293C59.3203 129.53 59.3477 129.813 59.3477 130.141ZM89.7305 130.141C89.7305 130.487 89.7031 130.779 89.6484 131.016C89.5938 131.253 89.5208 131.444 89.4297 131.59C89.3385 131.736 89.2292 131.845 89.1016 131.918C88.9922 131.973 88.8737 132 88.7461 132H70.2617C70.1341 132 70.0156 131.973 69.9062 131.918C69.7969 131.845 69.6875 131.736 69.5781 131.59C69.487 131.444 69.4141 131.253 69.3594 131.016C69.3047 130.779 69.2773 130.487 69.2773 130.141C69.2773 129.813 69.3047 129.53 69.3594 129.293C69.4141 129.056 69.4779 128.865 69.5508 128.719C69.6419 128.555 69.7422 128.436 69.8516 128.363C69.9792 128.272 70.1159 128.227 70.2617 128.227H77.6445V101.32L70.8086 105.395C70.4622 105.577 70.1797 105.686 69.9609 105.723C69.7604 105.759 69.5964 105.723 69.4688 105.613C69.3411 105.486 69.25 105.285 69.1953 105.012C69.1589 104.738 69.1406 104.392 69.1406 103.973C69.1406 103.663 69.1497 103.399 69.168 103.18C69.2044 102.961 69.25 102.779 69.3047 102.633C69.3594 102.487 69.4323 102.359 69.5234 102.25C69.6328 102.141 69.7695 102.031 69.9336 101.922L78.082 96.6993C78.1549 96.6447 78.2461 96.5991 78.3555 96.5626C78.4648 96.5262 78.6016 96.4897 78.7656 96.4532C78.9297 96.4168 79.1211 96.3986 79.3398 96.3986C79.5586 96.3803 79.832 96.3712 80.1602 96.3712C80.5977 96.3712 80.9622 96.3894 81.2539 96.4259C81.5456 96.4624 81.7734 96.517 81.9375 96.59C82.1016 96.6447 82.2109 96.7267 82.2656 96.8361C82.3203 96.9272 82.3477 97.0275 82.3477 97.1368V128.227H88.7461C88.8919 128.227 89.0286 128.272 89.1562 128.363C89.2839 128.436 89.3841 128.555 89.457 128.719C89.5482 128.865 89.612 129.056 89.6484 129.293C89.7031 129.53 89.7305 129.813 89.7305 130.141ZM120.031 129.977C120.031 130.305 120.004 130.596 119.949 130.852C119.913 131.107 119.849 131.326 119.758 131.508C119.685 131.672 119.576 131.8 119.43 131.891C119.302 131.964 119.156 132 118.992 132H99.4414C99.1862 132 98.9583 131.973 98.7578 131.918C98.5755 131.845 98.4115 131.736 98.2656 131.59C98.138 131.444 98.0378 131.234 97.9648 130.961C97.9102 130.688 97.8828 130.35 97.8828 129.949C97.8828 129.585 97.8919 129.266 97.9102 128.992C97.9466 128.719 98.0104 128.482 98.1016 128.281C98.1927 128.063 98.3021 127.853 98.4297 127.652C98.5755 127.434 98.7578 127.206 98.9766 126.969L105.84 119.695C107.426 118.018 108.693 116.514 109.641 115.184C110.607 113.853 111.345 112.641 111.855 111.547C112.384 110.453 112.73 109.46 112.895 108.567C113.059 107.673 113.141 106.835 113.141 106.051C113.141 105.267 113.013 104.529 112.758 103.836C112.503 103.125 112.129 102.505 111.637 101.977C111.163 101.448 110.561 101.029 109.832 100.719C109.103 100.409 108.264 100.254 107.316 100.254C106.204 100.254 105.202 100.409 104.309 100.719C103.434 101.029 102.659 101.366 101.984 101.731C101.328 102.095 100.772 102.432 100.316 102.742C99.8789 103.052 99.5508 103.207 99.332 103.207C99.2044 103.207 99.0859 103.171 98.9766 103.098C98.8854 103.025 98.8034 102.906 98.7305 102.742C98.6758 102.578 98.6302 102.359 98.5938 102.086C98.5573 101.813 98.5391 101.484 98.5391 101.102C98.5391 100.828 98.5482 100.591 98.5664 100.391C98.5846 100.19 98.612 100.017 98.6484 99.8712C98.7031 99.7254 98.7669 99.5887 98.8398 99.4611C98.9128 99.3335 99.0586 99.1785 99.2773 98.9962C99.4961 98.7957 99.8698 98.5314 100.398 98.2032C100.945 97.8751 101.62 97.5561 102.422 97.2462C103.242 96.9181 104.135 96.6447 105.102 96.4259C106.086 96.2072 107.116 96.0978 108.191 96.0978C109.905 96.0978 111.4 96.3439 112.676 96.8361C113.97 97.31 115.036 97.9663 115.875 98.8048C116.732 99.6434 117.37 100.619 117.789 101.731C118.208 102.843 118.418 104.027 118.418 105.285C118.418 106.415 118.318 107.546 118.117 108.676C117.917 109.788 117.488 111 116.832 112.313C116.194 113.607 115.264 115.056 114.043 116.66C112.822 118.246 111.199 120.078 109.176 122.156L103.57 128.008H118.965C119.111 128.008 119.247 128.054 119.375 128.145C119.521 128.218 119.639 128.336 119.73 128.5C119.84 128.664 119.913 128.874 119.949 129.129C120.004 129.366 120.031 129.649 120.031 129.977Z" fill="white"/>
<path d="M59.0469 131.59L54.8069 128.94L59.0469 131.59ZM58.7188 131.918L60.9548 136.39L61.0789 136.328L61.1994 136.259L58.7188 131.918ZM39.5234 131.918L36.7499 136.078L37.0089 136.251L37.2874 136.39L39.5234 131.918ZM39.1953 131.59L34.9553 134.24L35.0679 134.42L35.1953 134.59L39.1953 131.59ZM39.168 128.719L34.7972 126.291L34.7444 126.386L34.6958 126.483L39.168 128.719ZM39.4688 128.363L42.2423 132.524L42.3093 132.479L42.3749 132.432L39.4688 128.363ZM47.2617 128.227V133.227H52.2617V128.227H47.2617ZM47.2617 101.32H52.2617V92.5197L44.7019 97.0254L47.2617 101.32ZM40.4258 105.395L42.7545 109.819L42.8718 109.758L42.9856 109.69L40.4258 105.395ZM39.5781 105.723L38.7561 100.791L38.7199 100.797L38.6837 100.803L39.5781 105.723ZM39.0859 105.613L35.5504 109.149L35.6862 109.285L35.832 109.41L39.0859 105.613ZM38.8125 105.012L33.8564 105.673L33.8778 105.833L33.9096 105.992L38.8125 105.012ZM38.7852 103.18L33.8532 102.358L33.8195 102.56L33.8024 102.765L38.7852 103.18ZM39.1406 102.25L35.6051 98.7146L35.4447 98.875L35.2995 99.0492L39.1406 102.25ZM39.5508 101.922L36.8527 97.7124L36.8148 97.7368L36.7773 97.7617L39.5508 101.922ZM47.6992 96.6993L50.3973 100.909L50.5521 100.81L50.6992 100.699L47.6992 96.6993ZM48.957 96.3986V101.399H49.165L49.3723 101.381L48.957 96.3986ZM51.5547 96.59L49.524 101.159L49.7446 101.257L49.9735 101.333L51.5547 96.59ZM51.8828 96.8361L47.4107 99.0721L47.4966 99.2439L47.5953 99.4085L51.8828 96.8361ZM51.9648 128.227H46.9648V133.227H51.9648V128.227ZM58.7734 128.363L55.8672 132.432L56.0731 132.579L56.2927 132.705L58.7734 128.363ZM59.0742 128.719L54.5052 130.75L54.6479 131.071L54.8342 131.369L59.0742 128.719ZM59.2656 129.293L54.3238 130.053L54.352 130.237L54.3937 130.417L59.2656 129.293ZM54.3477 130.141C54.3477 130.185 54.3458 130.187 54.349 130.153C54.352 130.12 54.3622 130.028 54.3937 129.891L64.1376 132.14C64.3048 131.416 64.3477 130.72 64.3477 130.141H54.3477ZM54.3937 129.891C54.4162 129.794 54.5102 129.415 54.8069 128.94L63.2869 134.24C63.7658 133.474 64.0056 132.712 64.1376 132.14L54.3937 129.891ZM54.8069 128.94C55.0788 128.505 55.5354 127.978 56.2381 127.577L61.1994 136.259C62.1573 135.712 62.8327 134.967 63.2869 134.24L54.8069 128.94ZM56.4827 127.446C57.098 127.138 57.7494 127 58.3633 127V137C59.2323 137 60.1207 136.807 60.9548 136.39L56.4827 127.446ZM58.3633 127H39.8789V137H58.3633V127ZM39.8789 127C40.4927 127 41.1441 127.138 41.7595 127.446L37.2874 136.39C38.1215 136.807 39.0099 137 39.8789 137V127ZM42.2969 127.758C42.8027 128.095 43.0863 128.445 43.1953 128.59L35.1953 134.59C35.5231 135.027 36.0254 135.595 36.7499 136.078L42.2969 127.758ZM43.4353 128.94C43.732 129.415 43.826 129.794 43.8485 129.891L34.1046 132.14C34.2365 132.712 34.4764 133.474 34.9553 134.24L43.4353 128.94ZM43.8485 129.891C43.88 130.028 43.8902 130.12 43.8932 130.153C43.8964 130.187 43.8945 130.185 43.8945 130.141H33.8945C33.8945 130.72 33.9374 131.416 34.1046 132.14L43.8485 129.891ZM43.8945 130.141C43.8945 130.113 43.8958 130.123 43.8918 130.164C43.8879 130.205 43.8773 130.293 43.8485 130.417L34.1046 128.169C33.9412 128.877 33.8945 129.556 33.8945 130.141H43.8945ZM43.8485 130.417C43.8472 130.423 43.8359 130.472 43.8088 130.553C43.7827 130.631 43.7308 130.774 43.6401 130.955L34.6958 126.483C34.3827 127.109 34.2092 127.715 34.1046 128.169L43.8485 130.417ZM43.5388 131.147C43.3977 131.401 43.0178 132.007 42.2423 132.524L36.6952 124.203C35.7009 124.866 35.1205 125.709 34.7972 126.291L43.5388 131.147ZM42.3749 132.432C41.722 132.898 40.8551 133.227 39.8789 133.227V123.227C38.611 123.227 37.4707 123.646 36.5626 124.295L42.3749 132.432ZM39.8789 133.227H47.2617V123.227H39.8789V133.227ZM52.2617 128.227V101.32H42.2617V128.227H52.2617ZM44.7019 97.0254L37.8659 101.1L42.9856 109.69L49.8216 105.615L44.7019 97.0254ZM38.097 100.97C38.0476 100.996 38.0686 100.982 38.1491 100.951C38.2187 100.924 38.4328 100.845 38.7561 100.791L40.4001 110.655C41.4004 110.488 42.2389 110.091 42.7545 109.819L38.097 100.97ZM38.6837 100.803C39.103 100.727 39.6982 100.688 40.3893 100.842C41.1085 101.002 41.7806 101.338 42.3399 101.817L35.832 109.41C37.3466 110.708 39.1386 110.885 40.4726 110.642L38.6837 100.803ZM42.6215 102.078C43.4766 102.933 43.6744 103.826 43.7154 104.031L33.9096 105.992C34.06 106.744 34.4401 108.039 35.5504 109.149L42.6215 102.078ZM43.7686 104.351C43.7718 104.375 43.7684 104.356 43.7646 104.284C43.7609 104.214 43.7578 104.112 43.7578 103.973H33.7578C33.7578 104.512 33.7799 105.099 33.8564 105.673L43.7686 104.351ZM43.7578 103.973C43.7578 103.75 43.7648 103.632 43.7679 103.595L33.8024 102.765C33.7691 103.165 33.7578 103.576 33.7578 103.973H43.7578ZM43.7171 104.002C43.717 104.002 43.7157 104.01 43.7128 104.025C43.7099 104.039 43.7049 104.062 43.6974 104.092C43.6832 104.148 43.6547 104.252 43.6035 104.389L34.2402 100.877C34.0357 101.423 33.9224 101.942 33.8532 102.358L43.7171 104.002ZM43.6035 104.389C43.4796 104.719 43.2821 105.091 42.9817 105.451L35.2995 99.0492C34.8169 99.6284 34.4735 100.255 34.2402 100.877L43.6035 104.389ZM42.6762 105.786C42.4995 105.962 42.3635 106.056 42.3243 106.082L36.7773 97.7617C36.4099 98.0066 36.0005 98.3192 35.6051 98.7146L42.6762 105.786ZM42.2489 106.132L50.3973 100.909L45.0011 92.4898L36.8527 97.7124L42.2489 106.132ZM50.6992 100.699C50.2457 101.04 49.8256 101.215 49.5538 101.306L46.3915 91.8192C45.901 91.9827 45.2986 92.2498 44.6992 92.6993L50.6992 100.699ZM49.5538 101.306C49.4931 101.326 49.4545 101.337 49.4455 101.339C49.4353 101.342 49.4414 101.34 49.4675 101.334L47.2982 91.5723C47.0348 91.6308 46.7191 91.71 46.3915 91.8192L49.5538 101.306ZM49.4675 101.334C49.1874 101.396 49.0003 101.399 48.957 101.399V91.3986C48.4762 91.3986 47.9063 91.4372 47.2982 91.5723L49.4675 101.334ZM49.3723 101.381C49.4035 101.379 49.5273 101.371 49.7773 101.371V91.3712C49.3711 91.3712 48.9481 91.382 48.5418 91.4158L49.3723 101.381ZM49.7773 101.371C49.9285 101.371 50.0444 101.374 50.1292 101.379C50.2159 101.383 50.2533 101.388 50.2509 101.387L51.4913 91.4645C50.9208 91.3932 50.3325 91.3712 49.7773 91.3712V101.371ZM50.2509 101.387C50.2509 101.387 50.2478 101.387 50.2418 101.386C50.2358 101.385 50.2264 101.384 50.2139 101.381C50.1896 101.377 50.1487 101.369 50.0939 101.356C49.9957 101.333 49.7897 101.277 49.524 101.159L53.5854 92.0209C52.7794 91.6627 52.002 91.5284 51.4913 91.4645L50.2509 101.387ZM49.9735 101.333C49.4064 101.144 48.1582 100.567 47.4107 99.0721L56.3549 94.6C55.4981 92.8862 54.0311 92.145 53.1358 91.8465L49.9735 101.333ZM47.5953 99.4085C47.1698 98.6993 46.9648 97.9061 46.9648 97.1368H56.9648C56.9648 96.1488 56.7052 95.1551 56.1703 94.2636L47.5953 99.4085ZM46.9648 97.1368V128.227H56.9648V97.1368H46.9648ZM51.9648 133.227H58.3633V123.227H51.9648V133.227ZM58.3633 133.227C57.3871 133.227 56.5202 132.898 55.8672 132.432L61.6796 124.295C60.7714 123.646 59.6311 123.227 58.3633 123.227V133.227ZM56.2927 132.705C55.3069 132.141 54.7669 131.338 54.5052 130.75L63.6433 126.688C63.2357 125.771 62.4952 124.731 61.2541 124.022L56.2927 132.705ZM54.8342 131.369C54.4534 130.76 54.3526 130.241 54.3238 130.053L64.2075 128.533C64.1057 127.871 63.8773 126.97 63.3142 126.069L54.8342 131.369ZM54.3937 130.417C54.3649 130.293 54.3543 130.205 54.3504 130.164C54.3464 130.123 54.3477 130.113 54.3477 130.141H64.3477C64.3477 129.556 64.301 128.877 64.1376 128.169L54.3937 130.417ZM89.4297 131.59L85.1897 128.94L89.4297 131.59ZM89.1016 131.918L91.3376 136.39L91.4618 136.328L91.5823 136.259L89.1016 131.918ZM69.9062 131.918L67.1327 136.078L67.3918 136.251L67.6702 136.39L69.9062 131.918ZM69.5781 131.59L65.3381 134.24L65.4507 134.42L65.5781 134.59L69.5781 131.59ZM69.5508 128.719L65.18 126.291L65.1272 126.386L65.0786 126.483L69.5508 128.719ZM69.8516 128.363L72.6251 132.524L72.6921 132.479L72.7578 132.432L69.8516 128.363ZM77.6445 128.227V133.227H82.6445V128.227H77.6445ZM77.6445 101.32H82.6445V92.5197L75.0847 97.0254L77.6445 101.32ZM70.8086 105.395L73.1373 109.819L73.2546 109.758L73.3684 109.69L70.8086 105.395ZM69.9609 105.723L69.1389 100.791L69.1027 100.797L69.0665 100.803L69.9609 105.723ZM69.4688 105.613L65.9332 109.149L66.069 109.285L66.2148 109.41L69.4688 105.613ZM69.1953 105.012L64.2392 105.673L64.2606 105.833L64.2924 105.992L69.1953 105.012ZM69.168 103.18L64.236 102.358L64.2023 102.56L64.1852 102.765L69.168 103.18ZM69.5234 102.25L65.9879 98.7146L65.8275 98.875L65.6823 99.0492L69.5234 102.25ZM69.9336 101.922L67.2355 97.7124L67.1976 97.7368L67.1601 97.7617L69.9336 101.922ZM78.082 96.6993L80.7801 100.909L80.9349 100.81L81.082 100.699L78.082 96.6993ZM79.3398 96.3986V101.399H79.5478L79.7551 101.381L79.3398 96.3986ZM81.9375 96.59L79.9068 101.159L80.1274 101.257L80.3564 101.333L81.9375 96.59ZM82.2656 96.8361L77.7935 99.0721L77.8794 99.2439L77.9782 99.4085L82.2656 96.8361ZM82.3477 128.227H77.3477V133.227H82.3477V128.227ZM89.1562 128.363L86.2501 132.432L86.4559 132.579L86.6756 132.705L89.1562 128.363ZM89.457 128.719L84.888 130.75L85.0307 131.071L85.217 131.369L89.457 128.719ZM89.6484 129.293L84.7066 130.053L84.7348 130.237L84.7765 130.417L89.6484 129.293ZM84.7305 130.141C84.7305 130.185 84.7286 130.187 84.7318 130.153C84.7348 130.12 84.745 130.028 84.7765 129.891L94.5204 132.14C94.6876 131.416 94.7305 130.72 94.7305 130.141H84.7305ZM84.7765 129.891C84.799 129.794 84.893 129.415 85.1897 128.94L93.6697 134.24C94.1486 133.474 94.3885 132.712 94.5204 132.14L84.7765 129.891ZM85.1897 128.94C85.4616 128.505 85.9182 127.978 86.6209 127.577L91.5823 136.259C92.5401 135.712 93.2155 134.967 93.6697 134.24L85.1897 128.94ZM86.8655 127.446C87.4809 127.138 88.1323 127 88.7461 127V137C89.6151 137 90.5035 136.807 91.3376 136.39L86.8655 127.446ZM88.7461 127H70.2617V137H88.7461V127ZM70.2617 127C70.8756 127 71.527 127.138 72.1423 127.446L67.6702 136.39C68.5043 136.807 69.3927 137 70.2617 137V127ZM72.6798 127.758C73.1855 128.095 73.4691 128.445 73.5781 128.59L65.5781 134.59C65.9059 135.027 66.4082 135.595 67.1327 136.078L72.6798 127.758ZM73.8181 128.94C74.1148 129.415 74.2088 129.794 74.2313 129.891L64.4874 132.14C64.6194 132.712 64.8592 133.474 65.3381 134.24L73.8181 128.94ZM74.2313 129.891C74.2628 130.028 74.273 130.12 74.276 130.153C74.2792 130.187 74.2773 130.185 74.2773 130.141H64.2773C64.2773 130.72 64.3202 131.416 64.4874 132.14L74.2313 129.891ZM74.2773 130.141C74.2773 130.113 74.2786 130.123 74.2746 130.164C74.2707 130.205 74.2601 130.293 74.2313 130.417L64.4874 128.169C64.324 128.877 64.2773 129.556 64.2773 130.141H74.2773ZM74.2313 130.417C74.23 130.423 74.2187 130.472 74.1917 130.553C74.1655 130.631 74.1136 130.774 74.0229 130.955L65.0786 126.483C64.7655 127.109 64.592 127.715 64.4874 128.169L74.2313 130.417ZM73.9216 131.147C73.7805 131.401 73.4006 132.007 72.6251 132.524L67.0781 124.203C66.0838 124.866 65.5033 125.709 65.18 126.291L73.9216 131.147ZM72.7578 132.432C72.1048 132.898 71.2379 133.227 70.2617 133.227V123.227C68.9939 123.227 67.8535 123.646 66.9454 124.295L72.7578 132.432ZM70.2617 133.227H77.6445V123.227H70.2617V133.227ZM82.6445 128.227V101.32H72.6445V128.227H82.6445ZM75.0847 97.0254L68.2488 101.1L73.3684 109.69L80.2044 105.615L75.0847 97.0254ZM68.4799 100.97C68.4304 100.996 68.4514 100.982 68.5319 100.951C68.6016 100.924 68.8157 100.845 69.1389 100.791L70.7829 110.655C71.7832 110.488 72.6217 110.091 73.1373 109.819L68.4799 100.97ZM69.0665 100.803C69.4858 100.727 70.081 100.688 70.7722 100.842C71.4913 101.002 72.1634 101.338 72.7227 101.817L66.2148 109.41C67.7295 110.708 69.5214 110.885 70.8554 110.642L69.0665 100.803ZM73.0043 102.078C73.8594 102.933 74.0572 103.826 74.0982 104.031L64.2924 105.992C64.4428 106.744 64.8229 108.039 65.9332 109.149L73.0043 102.078ZM74.1515 104.351C74.1546 104.375 74.1512 104.356 74.1474 104.284C74.1437 104.214 74.1406 104.112 74.1406 103.973H64.1406C64.1406 104.512 64.1627 105.099 64.2392 105.673L74.1515 104.351ZM74.1406 103.973C74.1406 103.75 74.1476 103.632 74.1507 103.595L64.1852 102.765C64.1519 103.165 64.1406 103.576 64.1406 103.973H74.1406ZM74.0999 104.002C74.0998 104.002 74.0985 104.01 74.0956 104.025C74.0927 104.039 74.0877 104.062 74.0802 104.092C74.066 104.148 74.0375 104.252 73.9863 104.389L64.623 100.877C64.4185 101.423 64.3052 101.942 64.236 102.358L74.0999 104.002ZM73.9863 104.389C73.8624 104.719 73.6649 105.091 73.3645 105.451L65.6823 99.0492C65.1997 99.6284 64.8563 100.255 64.623 100.877L73.9863 104.389ZM73.059 105.786C72.8823 105.962 72.7463 106.056 72.7071 106.082L67.1601 97.7617C66.7928 98.0066 66.3833 98.3192 65.9879 98.7146L73.059 105.786ZM72.6317 106.132L80.7801 100.909L75.384 92.4898L67.2355 97.7124L72.6317 106.132ZM81.082 100.699C80.6285 101.04 80.2084 101.215 79.9366 101.306L76.7743 91.8192C76.2838 91.9827 75.6814 92.2498 75.082 92.6993L81.082 100.699ZM79.9366 101.306C79.8759 101.326 79.8373 101.337 79.8284 101.339C79.8181 101.342 79.8243 101.34 79.8503 101.334L77.681 91.5723C77.4176 91.6308 77.1019 91.71 76.7743 91.8192L79.9366 101.306ZM79.8503 101.334C79.5702 101.396 79.3831 101.399 79.3398 101.399V91.3986C78.8591 91.3986 78.2892 91.4372 77.681 91.5723L79.8503 101.334ZM79.7551 101.381C79.7863 101.379 79.9101 101.371 80.1602 101.371V91.3712C79.7539 91.3712 79.3309 91.382 78.9246 91.4158L79.7551 101.381ZM80.1602 101.371C80.3114 101.371 80.4272 101.374 80.512 101.379C80.5987 101.383 80.6361 101.388 80.6337 101.387L81.8741 91.4645C81.3036 91.3932 80.7154 91.3712 80.1602 91.3712V101.371ZM80.6337 101.387C80.6337 101.387 80.6306 101.387 80.6246 101.386C80.6186 101.385 80.6092 101.384 80.5967 101.381C80.5724 101.377 80.5315 101.369 80.4767 101.356C80.3785 101.333 80.1725 101.277 79.9068 101.159L83.9682 92.0209C83.1623 91.6627 82.3848 91.5284 81.8741 91.4645L80.6337 101.387ZM80.3564 101.333C79.7892 101.144 78.541 100.567 77.7935 99.0721L86.7378 94.6C85.8809 92.8862 84.4139 92.145 83.5186 91.8465L80.3564 101.333ZM77.9782 99.4085C77.5526 98.6993 77.3477 97.9061 77.3477 97.1368H87.3477C87.3477 96.1488 87.088 95.1551 86.5531 94.2636L77.9782 99.4085ZM77.3477 97.1368V128.227H87.3477V97.1368H77.3477ZM82.3477 133.227H88.7461V123.227H82.3477V133.227ZM88.7461 133.227C87.7699 133.227 86.903 132.898 86.2501 132.432L92.0624 124.295C91.1543 123.646 90.014 123.227 88.7461 123.227V133.227ZM86.6756 132.705C85.6897 132.141 85.1497 131.338 84.888 130.75L94.0261 126.688C93.6185 125.771 92.878 124.731 91.6369 124.022L86.6756 132.705ZM85.217 131.369C84.8362 130.76 84.7354 130.241 84.7066 130.053L94.5903 128.533C94.4885 127.871 94.2601 126.97 93.697 126.069L85.217 131.369ZM84.7765 130.417C84.7477 130.293 84.7371 130.205 84.7332 130.164C84.7292 130.123 84.7305 130.113 84.7305 130.141H94.7305C94.7305 129.556 94.6838 128.877 94.5204 128.169L84.7765 130.417ZM119.949 130.852L115.06 129.804L115.024 129.973L114.999 130.145L119.949 130.852ZM119.758 131.508L115.286 129.272L115.235 129.373L115.189 129.477L119.758 131.508ZM119.43 131.891L121.91 136.232L121.996 136.183L122.08 136.131L119.43 131.891ZM98.7578 131.918L96.9009 136.56L97.1664 136.667L97.4422 136.742L98.7578 131.918ZM98.2656 131.59L94.5027 134.882L94.6124 135.008L94.7301 135.125L98.2656 131.59ZM97.9648 130.961L93.0619 131.942L93.0929 132.097L93.1337 132.249L97.9648 130.961ZM97.9102 128.992L92.954 128.331L92.9322 128.495L92.9212 128.66L97.9102 128.992ZM98.1016 128.281L102.653 130.35L102.686 130.278L102.717 130.204L98.1016 128.281ZM98.4297 127.652L94.2694 124.879L94.2399 124.923L94.2114 124.968L98.4297 127.652ZM98.9766 126.969L95.34 123.537L95.3212 123.557L95.3025 123.577L98.9766 126.969ZM105.84 119.695L102.207 116.26L102.203 116.264L105.84 119.695ZM109.641 115.184L105.595 112.246L105.581 112.264L105.568 112.283L109.641 115.184ZM111.855 111.547L107.354 109.371L107.339 109.402L107.325 109.433L111.855 111.547ZM112.758 103.836L108.052 105.525L108.059 105.545L108.066 105.565L112.758 103.836ZM111.637 101.977L107.914 105.314L107.945 105.349L107.977 105.384L111.637 101.977ZM104.309 100.719L102.67 95.9951L102.655 96.0004L102.639 96.0057L104.309 100.719ZM101.984 101.731L99.6068 97.3321L99.5814 97.3458L99.5562 97.3598L101.984 101.731ZM100.316 102.742L97.5049 98.6077L97.4653 98.6346L97.4263 98.6622L100.316 102.742ZM98.9766 103.098L95.8531 107.002L96.0225 107.138L96.2031 107.258L98.9766 103.098ZM98.7305 102.742L93.9871 104.323L94.0634 104.552L94.1614 104.773L98.7305 102.742ZM98.6484 99.8712L93.9668 98.1156L93.8668 98.3823L93.7977 98.6585L98.6484 99.8712ZM99.2773 98.9962L102.478 102.837L102.569 102.762L102.656 102.682L99.2773 98.9962ZM100.398 98.2032L97.826 93.9158L97.7936 93.9352L97.7616 93.955L100.398 98.2032ZM102.422 97.2462L104.224 101.91L104.251 101.9L104.279 101.889L102.422 97.2462ZM105.102 96.4259L104.017 91.545L104.007 91.5471L103.997 91.5493L105.102 96.4259ZM112.676 96.8361L110.876 101.501L110.916 101.516L110.956 101.531L112.676 96.8361ZM115.875 98.8048L112.339 102.34L112.358 102.359L112.378 102.378L115.875 98.8048ZM118.117 108.676L123.038 109.563L123.04 109.549L118.117 108.676ZM116.832 112.313L112.36 110.077L112.354 110.089L112.347 110.102L116.832 112.313ZM114.043 116.66L118.004 119.711L118.013 119.7L118.021 119.689L114.043 116.66ZM109.176 122.156L105.593 118.668L105.579 118.683L105.565 118.698L109.176 122.156ZM103.57 128.008L99.9597 124.549L91.8566 133.008H103.57V128.008ZM119.375 128.145L116.469 132.213L116.788 132.441L117.139 132.617L119.375 128.145ZM119.73 128.5L115.36 130.928L115.458 131.105L115.57 131.274L119.73 128.5ZM119.949 129.129L114.999 129.836L115.03 130.046L115.077 130.253L119.949 129.129ZM115.031 129.977C115.031 130.003 115.03 130.001 115.033 129.975C115.035 129.949 115.042 129.89 115.06 129.804L124.838 131.899C124.983 131.225 125.031 130.571 125.031 129.977H115.031ZM114.999 130.145C115.02 130.002 115.083 129.678 115.286 129.272L124.23 133.744C124.615 132.973 124.806 132.212 124.899 131.559L114.999 130.145ZM115.189 129.477C115.502 128.772 116.041 128.112 116.78 127.651L122.08 136.131C123.11 135.487 123.868 134.572 124.327 133.539L115.189 129.477ZM116.949 127.55C117.662 127.142 118.39 127 118.992 127V137C119.923 137 120.942 136.785 121.91 136.232L116.949 127.55ZM118.992 127H99.4414V137H118.992V127ZM99.4414 127C99.5338 127 99.7608 127.009 100.073 127.094L97.4422 136.742C98.1558 136.937 98.8386 137 99.4414 137V127ZM100.615 127.276C101.093 127.467 101.493 127.746 101.801 128.054L94.7301 135.125C95.3301 135.726 96.0583 136.223 96.9009 136.56L100.615 127.276ZM102.029 128.297C102.584 128.932 102.755 129.52 102.796 129.673L93.1337 132.249C93.3201 132.949 93.6919 133.956 94.5027 134.882L102.029 128.297ZM102.868 129.98C102.877 130.027 102.882 130.06 102.884 130.078C102.887 130.097 102.887 130.104 102.887 130.099C102.887 130.094 102.885 130.079 102.885 130.053C102.884 130.027 102.883 129.993 102.883 129.949H92.8828C92.8828 130.55 92.9214 131.239 93.0619 131.942L102.868 129.98ZM102.883 129.949C102.883 129.662 102.89 129.458 102.899 129.325L92.9212 128.66C92.8937 129.073 92.8828 129.508 92.8828 129.949H102.883ZM102.866 129.653C102.853 129.749 102.809 130.008 102.653 130.35L93.5497 126.212C93.2117 126.956 93.0398 127.688 92.954 128.331L102.866 129.653ZM102.717 130.204C102.697 130.251 102.674 130.296 102.648 130.337L94.2114 124.968C93.9303 125.41 93.6879 125.874 93.4862 126.358L102.717 130.204ZM102.59 130.426C102.575 130.449 102.57 130.454 102.58 130.441C102.59 130.428 102.613 130.401 102.651 130.36L95.3025 123.577C94.944 123.966 94.5891 124.399 94.2694 124.879L102.59 130.426ZM102.613 130.4L109.476 123.127L102.203 116.264L95.34 123.537L102.613 130.4ZM109.473 123.131C111.158 121.349 112.589 119.663 113.713 118.085L105.568 112.283C104.796 113.366 103.693 114.688 102.207 116.26L109.473 123.131ZM113.687 118.121C114.778 116.618 115.702 115.127 116.386 113.661L107.325 109.433C106.988 110.155 106.436 111.088 105.595 112.246L113.687 118.121ZM116.357 113.723C117.02 112.352 117.545 110.924 117.812 109.47L107.977 107.663C107.916 107.996 107.749 108.554 107.354 109.371L116.357 113.723ZM117.812 109.47C118.023 108.324 118.141 107.181 118.141 106.051H108.141C108.141 106.489 108.095 107.022 107.977 107.663L117.812 109.47ZM118.141 106.051C118.141 104.714 117.921 103.387 117.45 102.108L108.066 105.565C108.105 105.67 108.141 105.82 108.141 106.051H118.141ZM117.464 102.147C116.99 100.828 116.271 99.6167 115.296 98.5696L107.977 105.384C107.987 105.394 108.015 105.422 108.052 105.525L117.464 102.147ZM115.36 98.639C114.342 97.5043 113.113 96.6803 111.788 96.1172L107.876 105.321C107.949 105.351 107.975 105.37 107.971 105.368C107.97 105.367 107.962 105.361 107.951 105.352C107.94 105.342 107.927 105.329 107.914 105.314L115.36 98.639ZM111.788 96.1172C110.331 95.4982 108.807 95.254 107.316 95.254V105.254C107.722 105.254 107.875 105.32 107.876 105.321L111.788 96.1172ZM107.316 95.254C105.743 95.254 104.174 95.4733 102.67 95.9951L105.947 105.443C106.23 105.345 106.666 105.254 107.316 105.254V95.254ZM102.639 96.0057C101.569 96.3847 100.55 96.822 99.6068 97.3321L104.362 106.129C104.767 105.91 105.298 105.673 105.978 105.432L102.639 96.0057ZM99.5562 97.3598C98.8121 97.7732 98.12 98.1894 97.5049 98.6077L103.128 106.877C103.424 106.675 103.844 106.417 104.413 106.101L99.5562 97.3598ZM97.4263 98.6622C97.3446 98.7201 97.4146 98.6606 97.6072 98.5697C97.7095 98.5214 97.8963 98.4404 98.1536 98.3675C98.404 98.2965 98.8121 98.2072 99.332 98.2072V108.207C100.512 108.207 101.431 107.823 101.877 107.612C102.398 107.366 102.851 107.074 103.206 106.822L97.4263 98.6622ZM99.332 98.2072C100.223 98.2072 101.064 98.4804 101.75 98.9375L96.2031 107.258C97.1075 107.861 98.1862 108.207 99.332 108.207V98.2072ZM102.1 99.1934C102.51 99.5212 102.785 99.8582 102.958 100.108C103.132 100.359 103.239 100.574 103.3 100.712L94.1614 104.773C94.4004 105.311 94.89 106.232 95.8531 107.002L102.1 99.1934ZM103.474 101.161C103.523 101.307 103.544 101.407 103.55 101.435C103.557 101.469 103.556 101.468 103.55 101.425L93.6376 102.747C93.6943 103.172 93.7918 103.738 93.9871 104.323L103.474 101.161ZM103.55 101.425C103.551 101.437 103.548 101.417 103.545 101.358C103.542 101.299 103.539 101.215 103.539 101.102H93.5391C93.5391 101.628 93.5632 102.189 93.6376 102.747L103.55 101.425ZM103.539 101.102C103.539 101.02 103.54 100.957 103.542 100.911C103.544 100.865 103.546 100.843 103.546 100.843L93.5869 99.9381C93.5512 100.331 93.5391 100.727 93.5391 101.102H103.539ZM103.546 100.843C103.546 100.837 103.545 100.854 103.539 100.89C103.534 100.926 103.522 100.993 103.499 101.084L93.7977 98.6585C93.682 99.1215 93.6212 99.5614 93.5869 99.9381L103.546 100.843ZM103.33 101.627C103.296 101.717 103.248 101.824 103.181 101.942L94.4986 96.9804C94.2854 97.3535 94.1098 97.7342 93.9668 98.1156L103.33 101.627ZM103.181 101.942C102.957 102.335 102.733 102.582 102.645 102.676C102.591 102.734 102.548 102.775 102.522 102.798C102.496 102.822 102.48 102.836 102.478 102.837L96.0764 95.1551C95.7462 95.4303 95.0298 96.0508 94.4986 96.9804L103.181 101.942ZM102.656 102.682C102.595 102.737 102.558 102.767 102.557 102.768C102.554 102.77 102.569 102.758 102.609 102.73C102.691 102.672 102.828 102.58 103.035 102.451L97.7616 93.955C97.1904 94.3096 96.4811 94.7766 95.8987 95.3104L102.656 102.682ZM102.971 102.491C103.204 102.351 103.603 102.15 104.224 101.91L100.62 92.5822C99.6362 92.9623 98.6862 93.3996 97.826 93.9158L102.971 102.491ZM104.279 101.889C104.827 101.669 105.466 101.47 106.206 101.302L103.997 91.5493C102.805 91.8193 101.657 92.167 100.565 92.6038L104.279 101.889ZM106.186 101.307C106.792 101.172 107.457 101.098 108.191 101.098V91.0978C106.775 91.0978 105.38 91.242 104.017 91.545L106.186 101.307ZM108.191 101.098C109.439 101.098 110.299 101.278 110.876 101.501L114.475 92.1711C112.5 91.4093 110.371 91.0978 108.191 91.0978V101.098ZM110.956 101.531C111.678 101.796 112.092 102.093 112.339 102.34L119.411 95.2693C117.981 93.8399 116.262 92.8245 114.395 92.141L110.956 101.531ZM112.378 102.378C112.718 102.712 112.951 103.071 113.111 103.495L122.468 99.9666C121.789 98.1664 120.745 96.5752 119.372 95.2315L112.378 102.378ZM113.111 103.495C113.305 104.01 113.418 104.594 113.418 105.285H123.418C123.418 103.46 123.112 101.675 122.468 99.9666L113.111 103.495ZM113.418 105.285C113.418 106.118 113.344 106.956 113.194 107.802L123.04 109.549C123.291 108.135 123.418 106.713 123.418 105.285H113.418ZM113.197 107.789C113.101 108.316 112.863 109.07 112.36 110.077L121.304 114.549C122.114 112.93 122.732 111.259 123.038 109.563L113.197 107.789ZM112.347 110.102C111.895 111.02 111.162 112.191 110.065 113.631L118.021 119.689C119.367 117.922 120.493 116.194 121.317 114.523L112.347 110.102ZM110.082 113.61C109.017 114.991 107.536 116.673 105.593 118.668L112.758 125.644C114.862 123.484 116.626 121.501 118.004 119.711L110.082 113.61ZM105.565 118.698L99.9597 124.549L107.181 131.467L112.786 125.615L105.565 118.698ZM103.57 133.008H118.965V123.008H103.57V133.008ZM118.965 133.008C117.989 133.008 117.122 132.68 116.469 132.213L122.281 124.076C121.373 123.427 120.233 123.008 118.965 123.008V133.008ZM117.139 132.617C116.253 132.174 115.682 131.508 115.36 130.928L124.101 126.072C123.597 125.164 122.789 124.261 121.611 123.673L117.139 132.617ZM115.57 131.274C115.159 130.656 115.037 130.102 114.999 129.836L124.899 128.422C124.788 127.646 124.521 126.672 123.891 125.727L115.57 131.274ZM115.077 130.253C115.048 130.129 115.038 130.041 115.034 130C115.03 129.959 115.031 129.949 115.031 129.977H125.031C125.031 129.392 124.985 128.713 124.821 128.005L115.077 130.253Z" fill="#242546"/>
</svg>
