<svg width="157" height="170" viewBox="0 0 157 170" fill="none" xmlns="http://www.w3.org/2000/svg">
<path d="M98.2629 47.6938V65.4117H58.0625V47.6938C58.0625 43.572 61.8232 40.2517 66.4916 40.2517H89.8014C94.5023 40.2231 98.2629 43.572 98.2629 47.6938Z" fill="white"/>
<path d="M78.1962 65.4116H58.0959V47.6936C58.0959 43.5719 61.8567 40.2515 66.5251 40.2515H78.1638V60.7459L78.1962 65.4116Z" fill="#8AF3FF"/>
<path d="M91.3249 165.536C87.7263 168.341 83.2848 169.772 78.8108 169.972C73.5264 170.23 68.1448 168.656 63.9951 165.25C-32.8426 86.6209 1.65192 42.6553 34.6552 42.9702C66.9128 43.2564 77.6113 63.0351 78.8108 65.5254C78.9081 65.6971 78.9406 65.7831 78.9406 65.7831C78.9406 65.7831 89.3797 43.514 123.809 43.8289C156.78 44.201 190.173 88.8535 91.3249 165.536Z" fill="#FF5287"/>
<path d="M78.1952 65.5261V169.944C72.9108 170.202 67.5291 168.628 63.3794 165.222C-33.4583 86.593 1.0362 42.6274 34.0395 42.9422C66.2971 43.2571 76.9633 63.0645 78.1952 65.5261Z" fill="#FF2E60"/>
<path d="M100.598 67.1568C119.044 49.9541 148.384 60.8882 133.731 95.0933" stroke="white" stroke-width="2" stroke-miterlimit="10"/>
<path d="M83.4789 36.0747C81.8021 37.4357 78.9959 39.1556 78.9959 39.1556C78.9959 39.1556 77.3642 34.6781 76.6037 31.7839C75.7963 28.7112 75.0514 23.9 75.0514 23.9C75.0514 23.9 74.2208 19.5219 74.3235 16.552L74.3253 16.4996C74.413 13.962 74.4709 12.2878 75.2503 9.92637C75.9043 7.94472 76.3378 6.77017 77.5365 5.24186C78.723 3.72913 79.6244 3.13007 81.1849 2.32378C82.9286 1.4228 84.0392 1.07946 85.9179 1.16821C87.5851 1.24697 88.5498 1.57222 90.0613 2.45013C91.9162 3.52741 92.9078 4.50175 94.165 6.52677C95.1471 8.10865 95.6457 9.14759 96.0421 11.0958C96.5119 13.405 96.3337 14.8667 95.9551 17.2093C95.5473 19.7324 94.9559 21.0658 93.9263 23.2951C92.51 26.3618 91.2666 27.7375 89.25 30.2168C87.1785 32.7635 85.9115 34.1003 83.4789 36.0747Z" stroke="white" stroke-width="2"/>
<path d="M73.7852 84.6407C73.7852 84.9688 73.7669 85.2696 73.7305 85.543C73.7122 85.7982 73.6758 86.0534 73.6211 86.3087C73.5846 86.5456 73.5208 86.7826 73.4297 87.0196C73.3568 87.2383 73.2656 87.4753 73.1562 87.7305L60.4141 117.098C60.3229 117.316 60.2044 117.499 60.0586 117.645C59.931 117.772 59.7578 117.882 59.5391 117.973C59.3385 118.046 59.0742 118.091 58.7461 118.109C58.418 118.146 58.0169 118.164 57.543 118.164C56.9232 118.164 56.4401 118.137 56.0938 118.082C55.7474 118.027 55.4922 117.945 55.3281 117.836C55.1823 117.708 55.1185 117.563 55.1367 117.398C55.1549 117.216 55.2188 117.007 55.3281 116.77L68.7266 86.7462H51.7461C51.3997 86.7462 51.1354 86.5639 50.9531 86.1993C50.7891 85.8347 50.707 85.3243 50.707 84.668C50.707 84.3217 50.7253 84.0209 50.7617 83.7657C50.8164 83.5105 50.8893 83.3008 50.9805 83.1368C51.0716 82.9545 51.181 82.8269 51.3086 82.754C51.4362 82.6628 51.582 82.6172 51.7461 82.6172H72.3633C72.6185 82.6172 72.8372 82.6446 73.0195 82.6993C73.2201 82.754 73.3659 82.8633 73.457 83.0274C73.5664 83.1915 73.6484 83.4011 73.7031 83.6563C73.7578 83.9115 73.7852 84.2396 73.7852 84.6407ZM105.152 107.938C105.152 108.539 105.061 109.013 104.879 109.359C104.697 109.706 104.441 109.879 104.113 109.879H100.121V117.316C100.121 117.462 100.085 117.59 100.012 117.699C99.9388 117.79 99.8112 117.872 99.6289 117.945C99.4466 118.018 99.2096 118.073 98.918 118.109C98.6263 118.146 98.2526 118.164 97.7969 118.164C97.3594 118.164 96.9948 118.146 96.7031 118.109C96.4115 118.073 96.1745 118.018 95.9922 117.945C95.8281 117.872 95.7096 117.79 95.6367 117.699C95.582 117.59 95.5547 117.462 95.5547 117.316V109.879H80.9531C80.7344 109.879 80.5521 109.852 80.4062 109.797C80.2604 109.742 80.1237 109.642 79.9961 109.496C79.8867 109.35 79.8047 109.141 79.75 108.867C79.7135 108.594 79.6953 108.238 79.6953 107.801C79.6953 107.454 79.7044 107.145 79.7227 106.871C79.7409 106.598 79.7773 106.352 79.832 106.133C79.8867 105.896 79.9596 105.677 80.0508 105.477C80.1419 105.258 80.2513 105.03 80.3789 104.793L93.1211 83.3008C93.2122 83.155 93.3398 83.0274 93.5039 82.918C93.6862 82.8087 93.9141 82.7175 94.1875 82.6446C94.4609 82.5717 94.7982 82.5261 95.1992 82.5079C95.6003 82.4714 96.0742 82.4532 96.6211 82.4532C97.2227 82.4532 97.7422 82.4805 98.1797 82.5352C98.6354 82.5717 99 82.6264 99.2734 82.6993C99.5469 82.7722 99.7565 82.8725 99.9023 83.0001C100.048 83.1094 100.121 83.2462 100.121 83.4102V105.996H104.113C104.423 105.996 104.669 106.16 104.852 106.488C105.052 106.798 105.152 107.281 105.152 107.938ZM95.5547 86.5821H95.5L83.9883 105.996H95.5547V86.5821Z" fill="white"/>
<path d="M73.7305 85.543L68.7743 84.8822L68.7541 85.034L68.7432 85.1868L73.7305 85.543ZM73.6211 86.3087L68.7321 85.261L68.7015 85.4039L68.6792 85.5484L73.6211 86.3087ZM73.4297 87.0196L68.763 85.2247L68.7222 85.3307L68.6863 85.4385L73.4297 87.0196ZM73.1562 87.7305L77.7431 89.7207L77.7476 89.7104L77.752 89.7001L73.1562 87.7305ZM60.4141 117.098L55.8272 115.108L55.8127 115.141L55.7987 115.175L60.4141 117.098ZM60.0586 117.645L63.5941 121.18L60.0586 117.645ZM59.5391 117.973L61.2478 122.672L61.3559 122.632L61.4621 122.588L59.5391 117.973ZM58.7461 118.109L58.4687 113.117L58.331 113.125L58.1939 113.14L58.7461 118.109ZM56.0938 118.082L55.3139 123.021L56.0938 118.082ZM55.3281 117.836L52.0356 121.599L52.2821 121.815L52.5546 121.996L55.3281 117.836ZM55.1367 117.398L60.1061 117.951L60.1092 117.923L60.1119 117.896L55.1367 117.398ZM55.3281 116.77L59.8679 118.865L59.8812 118.836L59.8941 118.807L55.3281 116.77ZM68.7266 86.7462L73.2925 88.7838L76.4332 81.7462H68.7266V86.7462ZM50.9531 86.1993L46.3935 88.2511L46.4354 88.3441L46.481 88.4353L50.9531 86.1993ZM50.7617 83.7657L45.8727 82.718L45.8364 82.8873L45.812 83.0586L50.7617 83.7657ZM50.9805 83.1368L55.3513 85.565L55.404 85.47L55.4526 85.3728L50.9805 83.1368ZM51.3086 82.754L53.7893 87.0952L54.0089 86.9697L54.2148 86.8226L51.3086 82.754ZM73.0195 82.6993L71.5828 87.4884L71.6432 87.5065L71.7039 87.5231L73.0195 82.6993ZM73.457 83.0274L69.0862 85.4556L69.1845 85.6325L69.2968 85.8009L73.457 83.0274ZM68.7852 84.6407C68.7852 84.7878 68.7767 84.8642 68.7743 84.8822L78.6866 86.2038C78.7571 85.675 78.7852 85.1498 78.7852 84.6407H68.7852ZM68.7432 85.1868C68.7419 85.2049 68.7389 85.2291 68.7321 85.261L78.5101 87.3563C78.6126 86.8778 78.6826 86.3916 78.7178 85.8993L68.7432 85.1868ZM68.6792 85.5484C68.7003 85.4115 68.7332 85.3022 68.763 85.2247L78.0964 88.8145C78.3085 88.2631 78.469 87.6798 78.563 87.0689L68.6792 85.5484ZM68.6863 85.4385C68.6649 85.5025 68.6259 85.6084 68.5605 85.7609L77.752 89.7001C77.9053 89.3423 78.0486 88.9742 78.1731 88.6007L68.6863 85.4385ZM68.5694 85.7403L55.8272 115.108L65.0009 119.088L77.7431 89.7207L68.5694 85.7403ZM55.7987 115.175C55.9216 114.88 56.1435 114.489 56.5231 114.109L63.5941 121.18C64.2654 120.509 64.7242 119.753 65.0294 119.021L55.7987 115.175ZM56.5231 114.109C56.9772 113.655 57.4112 113.443 57.616 113.357L61.4621 122.588C62.1044 122.32 62.8848 121.889 63.5941 121.18L56.5231 114.109ZM57.8303 113.274C58.0694 113.187 58.2513 113.15 58.3409 113.134C58.4345 113.118 58.4819 113.116 58.4687 113.117L59.0234 123.102C59.6068 123.069 60.4094 122.977 61.2478 122.672L57.8303 113.274ZM58.1939 113.14C58.109 113.149 57.9045 113.164 57.543 113.164V123.164C58.1294 123.164 58.7269 123.142 59.2983 123.079L58.1939 113.14ZM57.543 113.164C57.3027 113.164 57.1241 113.159 56.9984 113.152C56.8659 113.144 56.8335 113.137 56.8736 113.143L55.3139 123.021C56.042 123.136 56.8277 123.164 57.543 123.164V113.164ZM56.8736 113.143C56.882 113.145 56.9938 113.162 57.1726 113.219C57.3388 113.273 57.689 113.401 58.1016 113.676L52.5546 121.996C53.6185 122.705 54.7254 122.928 55.3139 123.021L56.8736 113.143ZM58.6206 114.073C58.9832 114.39 59.4318 114.896 59.7517 115.627C60.0845 116.388 60.1901 117.195 60.1061 117.951L50.1673 116.846C49.9351 118.936 50.9042 120.609 52.0356 121.599L58.6206 114.073ZM60.1119 117.896C60.0829 118.186 60.0269 118.411 59.9816 118.56C59.9359 118.711 59.8915 118.814 59.8679 118.865L50.7883 114.674C50.5366 115.22 50.2531 115.985 50.1615 116.901L60.1119 117.896ZM59.8941 118.807L73.2925 88.7838L64.1606 84.7085L50.7622 114.732L59.8941 118.807ZM68.7266 81.7462H51.7461V91.7462H68.7266V81.7462ZM51.7461 81.7462C52.503 81.7462 53.3577 81.963 54.1268 82.4934C54.8516 82.9933 55.2387 83.5902 55.4253 83.9632L46.481 88.4353C46.8498 89.173 47.4602 90.0433 48.4494 90.7255C49.4828 91.4381 50.6428 91.7462 51.7461 91.7462V81.7462ZM55.5127 84.1475C55.6549 84.4635 55.6957 84.6902 55.7052 84.7496C55.7158 84.8157 55.707 84.7976 55.707 84.668H45.707C45.707 85.6337 45.8112 86.9571 46.3935 88.2511L55.5127 84.1475ZM55.707 84.668C55.707 84.5812 55.7094 84.5213 55.7115 84.4852C55.7138 84.4482 55.7153 84.446 55.7115 84.4728L45.812 83.0586C45.7329 83.6119 45.707 84.1598 45.707 84.668H55.707ZM55.6507 84.8133C55.6422 84.8533 55.6217 84.9395 55.5799 85.0597C55.5385 85.1787 55.4678 85.3552 55.3513 85.565L46.6097 80.7086C46.2053 81.4365 45.9937 82.1532 45.8727 82.718L55.6507 84.8133ZM55.4526 85.3728C55.2673 85.7435 54.7911 86.5227 53.7893 87.0952L48.8279 78.4128C47.5709 79.1311 46.8759 80.1655 46.5083 80.9007L55.4526 85.3728ZM54.2148 86.8226C53.4536 87.3663 52.5729 87.6172 51.7461 87.6172V77.6172C50.5912 77.6172 49.4188 77.9593 48.4024 78.6853L54.2148 86.8226ZM51.7461 87.6172H72.3633V77.6172H51.7461V87.6172ZM72.3633 87.6172C72.2864 87.6172 71.9945 87.6119 71.5828 87.4884L74.4563 77.9101C73.68 77.6773 72.9506 77.6172 72.3633 77.6172V87.6172ZM71.7039 87.5231C71.2803 87.4076 70.7765 87.1953 70.2793 86.8223C69.7731 86.4427 69.3717 85.9694 69.0862 85.4556L77.8278 80.5992C77.009 79.1253 75.6815 78.2426 74.3351 77.8755L71.7039 87.5231ZM69.2968 85.8009C68.9637 85.3012 68.851 84.8763 68.8141 84.704L78.5921 82.6087C78.4458 81.9259 78.1692 81.0817 77.6173 80.2539L69.2968 85.8009ZM68.8141 84.704C68.7999 84.6378 68.792 84.5879 68.7877 84.5577C68.7834 84.5271 68.782 84.5102 68.7819 84.509C68.7818 84.5077 68.7827 84.5178 68.7835 84.5409C68.7844 84.5639 68.7852 84.5969 68.7852 84.6407H78.7852C78.7852 84.0536 78.7488 83.3395 78.5921 82.6087L68.8141 84.704ZM100.121 109.879V104.879H95.1211V109.879H100.121ZM100.012 117.699L103.916 120.823L104.052 120.653L104.172 120.473L100.012 117.699ZM96.7031 118.109L96.083 123.071L96.7031 118.109ZM95.9922 117.945L93.9615 122.514L94.0477 122.553L94.1352 122.588L95.9922 117.945ZM95.6367 117.699L91.1646 119.935L91.4015 120.409L91.7324 120.823L95.6367 117.699ZM95.5547 109.879H100.555V104.879H95.5547V109.879ZM79.9961 109.496L75.9961 112.496L76.1091 112.647L76.2332 112.789L79.9961 109.496ZM79.75 108.867L74.7939 109.528L74.8153 109.689L74.8471 109.848L79.75 108.867ZM79.832 106.133L84.6827 107.346L84.6938 107.301L84.704 107.257L79.832 106.133ZM80.0508 105.477L84.6026 107.546L84.6356 107.473L84.6662 107.4L80.0508 105.477ZM80.3789 104.793L76.078 102.243L76.0254 102.332L75.9766 102.423L80.3789 104.793ZM93.1211 83.3008L88.8811 80.6508L88.85 80.7005L88.8202 80.7509L93.1211 83.3008ZM93.5039 82.918L90.9314 78.6306L90.8294 78.6918L90.7304 78.7578L93.5039 82.918ZM95.1992 82.5079L95.4263 87.5027L95.5392 87.4976L95.6519 87.4873L95.1992 82.5079ZM98.1797 82.5352L97.5595 87.4966L97.67 87.5104L97.781 87.5193L98.1797 82.5352ZM99.9023 83.0001L96.6098 86.7629L96.7516 86.887L96.9023 87.0001L99.9023 83.0001ZM100.121 105.996H95.1211V110.996H100.121V105.996ZM104.852 106.488L100.481 108.917L100.562 109.063L100.654 109.205L104.852 106.488ZM95.5547 86.5821H100.555V81.5821H95.5547V86.5821ZM95.5 86.5821V81.5821H92.6519L91.1992 84.0319L95.5 86.5821ZM83.9883 105.996L79.6875 103.446L75.2106 110.996H83.9883V105.996ZM95.5547 105.996V110.996H100.555V105.996H95.5547ZM100.152 107.938C100.152 107.995 100.147 107.939 100.174 107.8C100.201 107.662 100.27 107.38 100.454 107.031L109.303 111.688C110.013 110.34 110.152 108.954 110.152 107.938H100.152ZM100.454 107.031C100.645 106.668 101.033 106.094 101.743 105.612C102.498 105.1 103.344 104.879 104.113 104.879V114.879C106.693 114.879 108.457 113.296 109.303 111.688L100.454 107.031ZM104.113 104.879H100.121V114.879H104.113V104.879ZM95.1211 109.879V117.316H105.121V109.879H95.1211ZM95.1211 117.316C95.1211 116.587 95.3177 115.726 95.8515 114.926L104.172 120.473C104.852 119.453 105.121 118.337 105.121 117.316H95.1211ZM96.1074 114.576C96.4939 114.093 96.8942 113.793 97.1575 113.623C97.4262 113.451 97.6488 113.352 97.772 113.303L101.486 122.588C101.988 122.387 103.052 121.903 103.916 120.823L96.1074 114.576ZM97.772 113.303C97.967 113.225 98.1153 113.186 98.1902 113.169C98.2681 113.151 98.3078 113.147 98.2978 113.148L99.5381 123.071C100.066 123.005 100.763 122.877 101.486 122.588L97.772 113.303ZM98.2978 113.148C98.3053 113.147 98.2684 113.152 98.1753 113.156C98.0848 113.161 97.9603 113.164 97.7969 113.164V123.164C98.3605 123.164 98.9613 123.143 99.5381 123.071L98.2978 113.148ZM97.7969 113.164C97.6457 113.164 97.5298 113.161 97.445 113.157C97.3584 113.152 97.3209 113.148 97.3233 113.148L96.083 123.071C96.6534 123.142 97.2417 123.164 97.7969 123.164V113.164ZM97.3233 113.148C97.3133 113.147 97.353 113.151 97.4309 113.169C97.5058 113.186 97.6541 113.225 97.8491 113.303L94.1352 122.588C94.8585 122.877 95.555 123.005 96.083 123.071L97.3233 113.148ZM98.0229 113.376C98.16 113.437 98.3752 113.544 98.6263 113.718C98.8763 113.891 99.2133 114.166 99.5411 114.576L91.7324 120.823C92.5028 121.786 93.4238 122.275 93.9615 122.514L98.0229 113.376ZM100.109 115.463C100.462 116.17 100.555 116.834 100.555 117.316H90.5547C90.5547 118.09 90.702 119.01 91.1646 119.935L100.109 115.463ZM100.555 117.316V109.879H90.5547V117.316H100.555ZM95.5547 104.879H80.9531V114.879H95.5547V104.879ZM80.9531 104.879C81.11 104.879 81.5691 104.893 82.1619 105.115L78.6506 114.479C79.535 114.81 80.3588 114.879 80.9531 114.879V104.879ZM82.1619 105.115C82.9563 105.413 83.4732 105.877 83.759 106.204L76.2332 112.789C76.7742 113.407 77.5646 114.071 78.6506 114.479L82.1619 105.115ZM83.9961 106.496C84.267 106.857 84.4221 107.186 84.5088 107.408C84.5961 107.631 84.6358 107.801 84.6529 107.887L74.8471 109.848C74.9779 110.502 75.2645 111.521 75.9961 112.496L83.9961 106.496ZM84.7061 108.206C84.7101 108.236 84.7065 108.218 84.7024 108.139C84.6985 108.064 84.6953 107.953 84.6953 107.801H74.6953C74.6953 108.347 74.7164 108.947 74.7939 109.528L84.7061 108.206ZM84.6953 107.801C84.6953 107.538 84.7024 107.342 84.7116 107.204L74.7337 106.539C74.7065 106.947 74.6953 107.371 74.6953 107.801H84.6953ZM84.7116 107.204C84.7127 107.188 84.713 107.192 84.7097 107.214C84.7064 107.236 84.6988 107.281 84.6827 107.346L74.9813 104.92C74.841 105.481 74.7677 106.029 74.7337 106.539L84.7116 107.204ZM84.704 107.257C84.6914 107.312 84.6628 107.413 84.6026 107.546L75.4989 103.408C75.2565 103.941 75.0821 104.48 74.9601 105.009L84.704 107.257ZM84.6662 107.4C84.6859 107.352 84.7217 107.274 84.7813 107.164L75.9766 102.423C75.7809 102.786 75.598 103.163 75.4354 103.554L84.6662 107.4ZM84.6798 107.343L97.422 85.8508L88.8202 80.7509L76.078 102.243L84.6798 107.343ZM97.3611 85.9508C97.0248 86.4889 96.6175 86.8515 96.2774 87.0783L90.7304 78.7578C90.0621 79.2033 89.3997 79.8211 88.8811 80.6508L97.3611 85.9508ZM96.0764 87.2055C95.7508 87.4008 95.5144 87.4655 95.4758 87.4758L92.8992 77.8134C92.3138 77.9695 91.6216 78.2165 90.9314 78.6306L96.0764 87.2055ZM95.4758 87.4758C95.4229 87.4899 95.3825 87.4985 95.3569 87.5035C95.3312 87.5085 95.3168 87.5105 95.3151 87.5107C95.3133 87.5109 95.3216 87.5098 95.3409 87.5081C95.3601 87.5064 95.3883 87.5044 95.4263 87.5027L94.9722 77.513C94.3486 77.5414 93.6301 77.6185 92.8992 77.8134L95.4758 87.4758ZM95.6519 87.4873C95.8601 87.4684 96.1759 87.4532 96.6211 87.4532V77.4532C95.9725 77.4532 95.3404 77.4744 94.7465 77.5284L95.6519 87.4873ZM96.6211 87.4532C97.0844 87.4532 97.3864 87.475 97.5595 87.4966L98.7999 77.5738C98.0979 77.4861 97.361 77.4532 96.6211 77.4532V87.4532ZM97.781 87.5193C97.92 87.5304 98.0079 87.5415 98.0532 87.5483C98.0747 87.5515 98.0798 87.5527 98.0707 87.5509C98.062 87.5492 98.0322 87.543 97.9851 87.5305L100.562 77.8681C99.8753 77.6851 99.1756 77.5989 98.5784 77.5511L97.781 87.5193ZM97.9851 87.5305C97.8327 87.4898 97.2449 87.3186 96.6098 86.7629L103.195 79.2372C102.268 78.4263 101.261 78.0546 100.562 77.8681L97.9851 87.5305ZM96.9023 87.0001C96.4922 86.6925 96.0181 86.2191 95.6546 85.5376C95.2821 84.8391 95.1211 84.0991 95.1211 83.4102H105.121C105.121 81.4814 104.146 79.933 102.902 79.0001L96.9023 87.0001ZM95.1211 83.4102V105.996H105.121V83.4102H95.1211ZM100.121 110.996H104.113V100.996H100.121V110.996ZM104.113 110.996C103.331 110.996 102.496 110.772 101.757 110.279C101.063 109.817 100.675 109.266 100.481 108.917L109.222 104.06C108.379 102.542 106.652 100.996 104.113 100.996V110.996ZM100.654 109.205C100.326 108.699 100.217 108.271 100.181 108.099C100.144 107.918 100.152 107.846 100.152 107.938H110.152C110.152 106.97 110.041 105.305 109.049 103.772L100.654 109.205ZM95.5547 81.5821H95.5V91.5821H95.5547V81.5821ZM91.1992 84.0319L79.6875 103.446L88.2891 108.546L99.8008 89.1323L91.1992 84.0319ZM83.9883 110.996H95.5547V100.996H83.9883V110.996ZM100.555 105.996V86.5821H90.5547V105.996H100.555Z" fill="#242546"/>
</svg>
