<svg width="157" height="167" viewBox="0 0 157 167" fill="none" xmlns="http://www.w3.org/2000/svg">
<path d="M98.2759 44.7154V62.4301H58.0703V44.7154C58.0703 40.5944 61.8315 37.2747 66.5005 37.2747H89.8133C94.4823 37.246 98.2759 40.5944 98.2759 44.7154Z" fill="white"/>
<path d="M78.1731 62.4299H58.0703V44.7153C58.0703 40.5943 61.8315 37.2745 66.5005 37.2745H78.1407V57.7652L78.1731 62.4299Z" fill="#8AF3FF"/>
<path d="M91.3049 162.537C87.7058 165.342 83.2638 166.773 78.7893 166.973C73.5042 167.23 68.1218 165.656 63.9715 162.251C-32.8787 83.6368 1.62036 39.6792 34.6279 39.994C66.8897 40.2802 77.5896 60.0554 78.7893 62.5452C78.8865 62.7169 78.9189 62.8027 78.9189 62.8027C78.9189 62.8027 89.3595 40.5378 123.794 40.8526C156.801 41.2246 190.165 85.8404 91.3049 162.537Z" fill="#8AF3FF"/>
<path opacity="0.5" d="M78.2052 62.5445V166.944C72.9202 167.201 67.5378 165.627 63.3875 162.222C-33.4627 83.6074 1.03636 39.6499 34.0439 39.9647C66.3057 40.2795 76.9731 60.0547 78.2052 62.5445Z" fill="#00AB91"/>
<path d="M100.611 64.1762C119.06 46.9766 148.404 57.9087 133.748 92.1075" stroke="white" stroke-width="2" stroke-miterlimit="10"/>
<path d="M75.7695 102.938C75.7695 103.539 75.6784 104.013 75.4961 104.359C75.3138 104.706 75.0586 104.879 74.7305 104.879H70.7383V112.316C70.7383 112.462 70.7018 112.59 70.6289 112.699C70.556 112.79 70.4284 112.872 70.2461 112.945C70.0638 113.018 69.8268 113.073 69.5352 113.109C69.2435 113.146 68.8698 113.164 68.4141 113.164C67.9766 113.164 67.612 113.146 67.3203 113.109C67.0286 113.073 66.7917 113.018 66.6094 112.945C66.4453 112.872 66.3268 112.79 66.2539 112.699C66.1992 112.59 66.1719 112.462 66.1719 112.316V104.879H51.5703C51.3516 104.879 51.1693 104.852 51.0234 104.797C50.8776 104.742 50.7409 104.642 50.6133 104.496C50.5039 104.35 50.4219 104.141 50.3672 103.867C50.3307 103.594 50.3125 103.238 50.3125 102.801C50.3125 102.454 50.3216 102.145 50.3398 101.871C50.3581 101.598 50.3945 101.352 50.4492 101.133C50.5039 100.896 50.5768 100.677 50.668 100.477C50.7591 100.258 50.8685 100.03 50.9961 99.793L63.7383 78.3008C63.8294 78.155 63.957 78.0274 64.1211 77.918C64.3034 77.8087 64.5312 77.7175 64.8047 77.6446C65.0781 77.5717 65.4154 77.5261 65.8164 77.5079C66.2174 77.4714 66.6914 77.4532 67.2383 77.4532C67.8398 77.4532 68.3594 77.4805 68.7969 77.5352C69.2526 77.5717 69.6172 77.6264 69.8906 77.6993C70.1641 77.7722 70.3737 77.8725 70.5195 78.0001C70.6654 78.1094 70.7383 78.2462 70.7383 78.4102V100.996H74.7305C75.0404 100.996 75.2865 101.16 75.4688 101.488C75.6693 101.798 75.7695 102.281 75.7695 102.938ZM66.1719 81.5821H66.1172L54.6055 100.996H66.1719V81.5821ZM105.551 101.543C105.551 103.093 105.314 104.596 104.84 106.055C104.366 107.495 103.637 108.771 102.652 109.883C101.668 110.977 100.419 111.861 98.9062 112.535C97.3932 113.191 95.6068 113.52 93.5469 113.52C92.0703 113.52 90.7669 113.337 89.6367 112.973C88.5065 112.608 87.5221 112.089 86.6836 111.414C85.8451 110.74 85.1432 109.91 84.5781 108.926C84.0312 107.941 83.5846 106.82 83.2383 105.563C82.9102 104.305 82.6732 102.928 82.5273 101.434C82.3815 99.9389 82.3086 98.3347 82.3086 96.6212C82.3086 95.1081 82.3906 93.5769 82.5547 92.0274C82.7188 90.4779 83.0104 88.9831 83.4297 87.543C83.849 86.1029 84.4141 84.754 85.125 83.4962C85.8542 82.2201 86.7565 81.1172 87.832 80.1876C88.9258 79.2396 90.2292 78.4922 91.7422 77.9454C93.2552 77.3985 95.0143 77.1251 97.0195 77.1251C97.694 77.1251 98.3776 77.1706 99.0703 77.2618C99.763 77.3347 100.401 77.4441 100.984 77.5899C101.568 77.7175 102.06 77.8633 102.461 78.0274C102.862 78.1915 103.126 78.3282 103.254 78.4376C103.382 78.5287 103.473 78.6381 103.527 78.7657C103.6 78.8751 103.655 79.0027 103.691 79.1485C103.728 79.2761 103.755 79.4311 103.773 79.6133C103.792 79.7774 103.801 79.987 103.801 80.2422C103.801 80.5704 103.792 80.8529 103.773 81.0899C103.773 81.3269 103.737 81.5183 103.664 81.6641C103.609 81.81 103.527 81.9193 103.418 81.9922C103.327 82.0652 103.199 82.1016 103.035 82.1016C102.835 82.1016 102.561 82.0378 102.215 81.9102C101.868 81.7826 101.449 81.6459 100.957 81.5001C100.465 81.336 99.8633 81.1902 99.1523 81.0626C98.4596 80.935 97.6484 80.8712 96.7188 80.8712C95.0234 80.8712 93.5651 81.2175 92.3438 81.9102C91.1224 82.6029 90.1198 83.5326 89.3359 84.6993C88.5703 85.8659 87.9961 87.224 87.6133 88.7735C87.2487 90.3047 87.0391 91.9089 86.9844 93.586C87.4583 93.3126 87.987 93.0391 88.5703 92.7657C89.1719 92.4922 89.819 92.2462 90.5117 92.0274C91.2227 91.8087 91.9701 91.6355 92.7539 91.5079C93.5378 91.362 94.3763 91.2891 95.2695 91.2891C97.1836 91.2891 98.7969 91.5534 100.109 92.0821C101.422 92.5925 102.479 93.3126 103.281 94.2422C104.102 95.1537 104.685 96.2383 105.031 97.4962C105.378 98.7357 105.551 100.085 105.551 101.543ZM100.793 101.981C100.793 100.923 100.684 99.9662 100.465 99.1094C100.264 98.2344 99.918 97.4962 99.4258 96.8946C98.9336 96.293 98.2773 95.8282 97.457 95.5001C96.6367 95.1719 95.625 95.0079 94.4219 95.0079C93.7474 95.0079 93.0729 95.0717 92.3984 95.1993C91.724 95.3087 91.0677 95.4727 90.4297 95.6915C89.8099 95.892 89.2083 96.1381 88.625 96.4297C88.0599 96.7032 87.5404 97.004 87.0664 97.3321C87.0664 99.6837 87.2122 101.652 87.5039 103.238C87.8138 104.824 88.2513 106.1 88.8164 107.066C89.3997 108.014 90.1198 108.698 90.9766 109.117C91.8333 109.518 92.8359 109.719 93.9844 109.719C95.151 109.719 96.1628 109.5 97.0195 109.063C97.8763 108.625 98.5872 108.042 99.1523 107.313C99.7174 106.565 100.128 105.736 100.383 104.824C100.656 103.895 100.793 102.947 100.793 101.981Z" fill="white"/>
<path d="M70.7383 104.879V99.879H65.7383V104.879H70.7383ZM70.6289 112.699L74.5333 115.823L74.6688 115.653L74.7892 115.473L70.6289 112.699ZM67.3203 113.109L66.7001 118.071L67.3203 113.109ZM66.6094 112.945L64.5787 117.514L64.6649 117.553L64.7524 117.588L66.6094 112.945ZM66.2539 112.699L61.7818 114.935L62.0187 115.409L62.3496 115.823L66.2539 112.699ZM66.1719 104.879H71.1719V99.879H66.1719V104.879ZM50.6133 104.496L46.6133 107.496L46.7263 107.647L46.8504 107.789L50.6133 104.496ZM50.3672 103.867L45.411 104.528L45.4325 104.689L45.4643 104.848L50.3672 103.867ZM50.4492 101.133L55.2999 102.346L55.311 102.301L55.3212 102.257L50.4492 101.133ZM50.668 100.477L55.2198 102.546L55.2527 102.473L55.2834 102.4L50.668 100.477ZM50.9961 99.793L46.6952 97.2431L46.6426 97.3318L46.5937 97.4225L50.9961 99.793ZM63.7383 78.3008L59.4983 75.6508L59.4672 75.7005L59.4374 75.7509L63.7383 78.3008ZM64.1211 77.918L61.5486 73.6306L61.4466 73.6918L61.3476 73.7578L64.1211 77.918ZM65.8164 77.5079L66.0434 82.5027L66.1564 82.4976L66.2691 82.4873L65.8164 77.5079ZM68.7969 77.5352L68.1767 82.4966L68.2872 82.5104L68.3981 82.5193L68.7969 77.5352ZM70.5195 78.0001L67.227 81.7629L67.3688 81.887L67.5195 82.0001L70.5195 78.0001ZM70.7383 100.996H65.7383V105.996H70.7383V100.996ZM75.4688 101.488L71.098 103.917L71.1796 104.063L71.2709 104.205L75.4688 101.488ZM66.1719 81.5821H71.1719V76.5821H66.1719V81.5821ZM66.1172 81.5821V76.5821H63.2691L61.8164 79.0319L66.1172 81.5821ZM54.6055 100.996L50.3047 98.446L45.8278 105.996H54.6055V100.996ZM66.1719 100.996V105.996H71.1719V100.996H66.1719ZM70.7695 102.938C70.7695 102.995 70.7644 102.939 70.7911 102.8C70.8177 102.662 70.8876 102.38 71.0715 102.031L79.9207 106.688C80.6303 105.34 80.7695 103.954 80.7695 102.938H70.7695ZM71.0715 102.031C71.2622 101.668 71.6502 101.094 72.3605 100.612C73.1153 100.1 73.9608 99.879 74.7305 99.879V109.879C77.3097 109.879 79.0745 108.296 79.9207 106.688L71.0715 102.031ZM74.7305 99.879H70.7383V109.879H74.7305V99.879ZM65.7383 104.879V112.316H75.7383V104.879H65.7383ZM65.7383 112.316C65.7383 111.587 65.9349 110.726 66.4687 109.926L74.7892 115.473C75.4687 114.453 75.7383 113.337 75.7383 112.316H65.7383ZM66.7246 109.576C67.1111 109.093 67.5114 108.793 67.7747 108.623C68.0434 108.451 68.266 108.352 68.3891 108.303L72.103 117.588C72.605 117.387 73.6691 116.903 74.5333 115.823L66.7246 109.576ZM68.3891 108.303C68.5842 108.225 68.7324 108.186 68.8073 108.169C68.8853 108.151 68.9249 108.147 68.915 108.148L70.1553 118.071C70.6832 118.005 71.3798 117.877 72.103 117.588L68.3891 108.303ZM68.915 108.148C68.9225 108.147 68.8856 108.152 68.7925 108.156C68.702 108.161 68.5775 108.164 68.4141 108.164V118.164C68.9777 118.164 69.5785 118.143 70.1553 118.071L68.915 108.148ZM68.4141 108.164C68.2629 108.164 68.147 108.161 68.0622 108.157C67.9756 108.152 67.9381 108.148 67.9405 108.148L66.7001 118.071C67.2706 118.142 67.8589 118.164 68.4141 118.164V108.164ZM67.9405 108.148C67.9305 108.147 67.9702 108.151 68.0481 108.169C68.123 108.186 68.2712 108.225 68.4663 108.303L64.7524 117.588C65.4757 117.877 66.1722 118.005 66.7001 118.071L67.9405 108.148ZM68.6401 108.376C68.7772 108.437 68.9924 108.544 69.2435 108.718C69.4935 108.891 69.8305 109.166 70.1583 109.576L62.3496 115.823C63.12 116.786 64.041 117.275 64.5787 117.514L68.6401 108.376ZM70.726 110.463C71.0792 111.17 71.1719 111.834 71.1719 112.316H61.1719C61.1719 113.09 61.3192 114.01 61.7818 114.935L70.726 110.463ZM71.1719 112.316V104.879H61.1719V112.316H71.1719ZM66.1719 99.879H51.5703V109.879H66.1719V99.879ZM51.5703 99.879C51.7272 99.879 52.1863 99.893 52.7791 100.115L49.2678 109.479C50.1522 109.81 50.976 109.879 51.5703 109.879V99.879ZM52.7791 100.115C53.5734 100.413 54.0904 100.877 54.3762 101.204L46.8504 107.789C47.3914 108.407 48.1818 109.071 49.2678 109.479L52.7791 100.115ZM54.6133 101.496C54.8842 101.857 55.0393 102.186 55.1259 102.408C55.2133 102.631 55.253 102.801 55.2701 102.887L45.4643 104.848C45.5951 105.502 45.8817 106.521 46.6133 107.496L54.6133 101.496ZM55.3233 103.206C55.3273 103.236 55.3237 103.218 55.3196 103.139C55.3157 103.064 55.3125 102.953 55.3125 102.801H45.3125C45.3125 103.347 45.3336 103.947 45.411 104.528L55.3233 103.206ZM55.3125 102.801C55.3125 102.538 55.3195 102.342 55.3288 102.204L45.3509 101.539C45.3237 101.947 45.3125 102.371 45.3125 102.801H55.3125ZM55.3288 102.204C55.3298 102.188 55.3302 102.192 55.3269 102.214C55.3236 102.236 55.316 102.281 55.2999 102.346L45.5985 99.9202C45.4582 100.481 45.3849 101.029 45.3509 101.539L55.3288 102.204ZM55.3212 102.257C55.3086 102.312 55.28 102.413 55.2198 102.546L46.1161 98.4076C45.8736 98.9411 45.6992 99.48 45.5773 100.009L55.3212 102.257ZM55.2834 102.4C55.3031 102.352 55.3389 102.274 55.3984 102.164L46.5937 97.4225C46.3981 97.7859 46.2151 98.1634 46.0526 98.5535L55.2834 102.4ZM55.297 102.343L68.0392 80.8508L59.4374 75.7509L46.6952 97.2431L55.297 102.343ZM67.9783 80.9508C67.642 81.4889 67.2347 81.8515 66.8946 82.0783L61.3476 73.7578C60.6793 74.2033 60.0169 74.8211 59.4983 75.6508L67.9783 80.9508ZM66.6936 82.2055C66.368 82.4008 66.1315 82.4655 66.093 82.4758L63.5164 72.8134C62.931 72.9695 62.2387 73.2165 61.5486 73.6306L66.6936 82.2055ZM66.093 82.4758C66.0401 82.4899 65.9997 82.4985 65.9741 82.5035C65.9484 82.5085 65.934 82.5105 65.9323 82.5107C65.9305 82.5109 65.9388 82.5098 65.9581 82.5081C65.9773 82.5064 66.0055 82.5044 66.0434 82.5027L65.5894 72.513C64.9657 72.5414 64.2473 72.6185 63.5164 72.8134L66.093 82.4758ZM66.2691 82.4873C66.4773 82.4684 66.7931 82.4532 67.2383 82.4532V72.4532C66.5897 72.4532 65.9576 72.4744 65.3637 72.5284L66.2691 82.4873ZM67.2383 82.4532C67.7015 82.4532 68.0036 82.475 68.1767 82.4966L69.417 72.5738C68.7151 72.4861 67.9781 72.4532 67.2383 72.4532V82.4532ZM68.3981 82.5193C68.5372 82.5304 68.6251 82.5415 68.6704 82.5483C68.6919 82.5515 68.697 82.5527 68.6879 82.5509C68.6792 82.5492 68.6494 82.543 68.6023 82.5305L71.1789 72.8681C70.4925 72.6851 69.7928 72.5989 69.1956 72.5511L68.3981 82.5193ZM68.6023 82.5305C68.4499 82.4898 67.8621 82.3186 67.227 81.7629L73.8121 74.2372C72.8853 73.4263 71.8782 73.0546 71.1789 72.8681L68.6023 82.5305ZM67.5195 82.0001C67.1094 81.6925 66.6353 81.2191 66.2718 80.5376C65.8993 79.8391 65.7383 79.0991 65.7383 78.4102H75.7383C75.7383 76.4814 74.7634 74.933 73.5195 74.0001L67.5195 82.0001ZM65.7383 78.4102V100.996H75.7383V78.4102H65.7383ZM70.7383 105.996H74.7305V95.9962H70.7383V105.996ZM74.7305 105.996C73.9481 105.996 73.1127 105.772 72.374 105.279C71.6799 104.817 71.2923 104.266 71.098 103.917L79.8395 99.0601C78.9963 97.5423 77.2696 95.9962 74.7305 95.9962V105.996ZM71.2709 104.205C70.9434 103.699 70.8343 103.271 70.7987 103.099C70.761 102.918 70.7695 102.846 70.7695 102.938H80.7695C80.7695 101.97 80.6584 100.305 79.6666 98.7721L71.2709 104.205ZM66.1719 76.5821H66.1172V86.5821H66.1719V76.5821ZM61.8164 79.0319L50.3047 98.446L58.9062 103.546L70.418 84.1323L61.8164 79.0319ZM54.6055 105.996H66.1719V95.9962H54.6055V105.996ZM71.1719 100.996V81.5821H61.1719V100.996H71.1719ZM104.84 106.055L109.589 107.618L109.592 107.609L109.595 107.6L104.84 106.055ZM102.652 109.883L106.369 113.228L106.383 113.212L106.396 113.197L102.652 109.883ZM98.9062 112.535L100.896 117.122L100.919 117.112L100.942 117.102L98.9062 112.535ZM86.6836 111.414L83.5498 115.31L86.6836 111.414ZM84.5781 108.926L80.2073 111.354L80.2244 111.385L80.2419 111.415L84.5781 108.926ZM83.2383 105.563L78.4002 106.825L78.4087 106.857L78.4177 106.89L83.2383 105.563ZM83.4297 87.543L78.629 86.1454L83.4297 87.543ZM85.125 83.4962L80.7838 81.0155L80.778 81.0257L80.7722 81.0359L85.125 83.4962ZM87.832 80.1876L91.1018 83.9702L91.1067 83.966L87.832 80.1876ZM99.0703 77.2618L98.418 82.2191L98.4824 82.2275L98.5469 82.2343L99.0703 77.2618ZM100.984 77.5899L99.7717 82.4406L99.8435 82.4586L99.9159 82.4744L100.984 77.5899ZM103.254 78.4376L100 82.2338L100.168 82.3777L100.348 82.5062L103.254 78.4376ZM103.527 78.7657L98.9316 80.7353L99.1124 81.1572L99.3671 81.5392L103.527 78.7657ZM103.691 79.1485L98.8407 80.3612L98.8609 80.442L98.8838 80.5221L103.691 79.1485ZM103.773 79.6133L98.7983 80.1109L98.801 80.1382L98.804 80.1655L103.773 79.6133ZM103.773 81.0899L98.7882 80.7064L98.7734 80.8979V81.0899H103.773ZM103.664 81.6641L99.1919 79.4281L99.0746 79.6628L98.9824 79.9085L103.664 81.6641ZM103.418 81.9922L100.644 77.832L100.464 77.9524L100.294 78.0879L103.418 81.9922ZM100.957 81.5001L99.3759 86.2435L99.4558 86.2701L99.5366 86.2941L100.957 81.5001ZM99.1523 81.0626L98.2465 85.9798L98.2578 85.9819L98.269 85.9839L99.1523 81.0626ZM89.3359 84.6993L85.1857 81.9108L85.1706 81.9333L85.1557 81.956L89.3359 84.6993ZM87.6133 88.7735L82.7592 87.5743L82.7542 87.5948L82.7492 87.6154L87.6133 88.7735ZM86.9844 93.586L81.987 93.423L81.694 102.411L89.483 97.9169L86.9844 93.586ZM88.5703 92.7657L86.5013 88.2139L86.4746 88.226L86.4481 88.2384L88.5703 92.7657ZM90.5117 92.0274L89.0413 87.2485L89.0237 87.2539L89.0061 87.2595L90.5117 92.0274ZM92.7539 91.5079L93.5573 96.4429L93.613 96.4338L93.6684 96.4235L92.7539 91.5079ZM100.109 92.0821L98.2413 96.72L98.2692 96.7312L98.2971 96.7421L100.109 92.0821ZM103.281 94.2422L99.4955 97.5084L99.5297 97.5481L99.5648 97.5871L103.281 94.2422ZM105.031 97.4962L100.211 98.8236L100.213 98.8326L100.216 98.8417L105.031 97.4962ZM100.465 99.1094L95.5912 100.226L95.605 100.287L95.6203 100.346L100.465 99.1094ZM92.3984 95.1993L93.1988 100.135L93.2635 100.124L93.3279 100.112L92.3984 95.1993ZM90.4297 95.6915L91.9688 100.449L92.0102 100.435L92.0513 100.421L90.4297 95.6915ZM88.625 96.4297L90.8028 100.931L90.832 100.916L90.8611 100.902L88.625 96.4297ZM87.0664 97.3321L84.2204 93.2211L82.0664 94.7123V97.3321H87.0664ZM87.5039 103.238L82.5864 104.143L82.5914 104.17L82.5967 104.197L87.5039 103.238ZM88.8164 107.066L84.5005 109.591L84.5288 109.639L84.5581 109.687L88.8164 107.066ZM90.9766 109.117L88.7788 113.608L88.8177 113.627L88.8569 113.646L90.9766 109.117ZM99.1523 107.313L103.104 110.375L103.123 110.352L103.141 110.328L99.1523 107.313ZM100.383 104.824L95.586 103.413L95.5768 103.445L95.568 103.476L100.383 104.824ZM100.551 101.543C100.551 102.573 100.395 103.555 100.085 104.509L109.595 107.6C110.233 105.637 110.551 103.612 110.551 101.543H100.551ZM100.09 104.492C99.8245 105.3 99.4325 105.977 98.9085 106.569L106.396 113.197C107.841 111.565 108.907 109.69 109.589 107.618L100.09 104.492ZM98.9359 106.538C98.4756 107.049 97.8244 107.543 96.8705 107.968L100.942 117.102C103.014 116.178 104.86 114.904 106.369 113.228L98.9359 106.538ZM96.9167 107.948C96.1671 108.273 95.0874 108.52 93.5469 108.52V118.52C96.1262 118.52 98.6193 118.11 100.896 117.122L96.9167 107.948ZM93.5469 108.52C92.4701 108.52 91.7023 108.385 91.1717 108.214L88.1017 117.731C89.8315 118.289 91.6706 118.52 93.5469 118.52V108.52ZM91.1717 108.214C90.5625 108.018 90.1333 107.772 89.8174 107.518L83.5498 115.31C84.911 116.405 86.4505 117.199 88.1017 117.731L91.1717 108.214ZM89.8174 107.518C89.4899 107.255 89.1869 106.911 88.9144 106.437L80.2419 111.415C81.0996 112.909 82.2002 114.225 83.5498 115.31L89.8174 107.518ZM88.9489 106.498C88.6229 105.911 88.3159 105.168 88.0589 104.235L78.4177 106.89C78.8534 108.472 79.4396 109.972 80.2073 111.354L88.9489 106.498ZM88.0764 104.3C87.824 103.333 87.6278 102.22 87.5037 100.948L77.551 101.919C77.7185 103.637 77.9963 105.276 78.4002 106.825L88.0764 104.3ZM87.5037 100.948C87.3756 99.6353 87.3086 98.1947 87.3086 96.6212H77.3086C77.3086 98.4747 77.3874 100.242 77.551 101.919L87.5037 100.948ZM87.3086 96.6212C87.3086 95.2891 87.3808 93.9337 87.5269 92.5539L77.5825 91.5009C77.4005 93.2201 77.3086 94.9271 77.3086 96.6212H87.3086ZM87.5269 92.5539C87.6609 91.2879 87.8971 90.0853 88.2304 88.9407L78.629 86.1454C78.1237 87.881 77.7766 89.668 77.5825 91.5009L87.5269 92.5539ZM88.2304 88.9407C88.5459 87.8568 88.9637 86.8659 89.4778 85.9564L80.7722 81.0359C79.8644 82.642 79.152 84.3491 78.629 86.1454L88.2304 88.9407ZM89.4662 85.9768C89.9241 85.1755 90.469 84.5172 91.1018 83.9702L84.5623 76.4049C83.044 77.7173 81.7842 79.2647 80.7838 81.0155L89.4662 85.9768ZM91.1067 83.966C91.6876 83.4625 92.4418 83.0091 93.4418 82.6476L90.0426 73.2431C88.0165 73.9754 86.1639 75.0168 84.5574 76.4091L91.1067 83.966ZM93.4418 82.6476C94.2943 82.3395 95.4567 82.1251 97.0195 82.1251V72.1251C94.572 72.1251 92.2162 72.4575 90.0426 73.2431L93.4418 82.6476ZM97.0195 82.1251C97.4682 82.1251 97.9339 82.1553 98.418 82.2191L99.7226 72.3045C98.8213 72.1859 97.9198 72.1251 97.0195 72.1251V82.1251ZM98.5469 82.2343C99.0428 82.2865 99.4471 82.3595 99.7717 82.4406L102.197 72.7392C101.355 72.5287 100.483 72.3829 99.5937 72.2893L98.5469 82.2343ZM99.9159 82.4744C100.315 82.5616 100.512 82.6324 100.568 82.6551L104.354 73.3997C103.608 73.0942 102.821 72.8734 102.053 72.7054L99.9159 82.4744ZM100.568 82.6551C100.687 82.7038 100.707 82.7169 100.663 82.6941C100.638 82.6814 100.57 82.6453 100.474 82.5849C100.386 82.5295 100.21 82.4141 100 82.2338L106.508 74.6413C105.69 73.9402 104.708 73.5446 104.354 73.3997L100.568 82.6551ZM100.348 82.5062C99.8294 82.136 99.2824 81.5538 98.9316 80.7353L108.123 76.7961C107.663 75.7224 106.934 74.9214 106.16 74.3689L100.348 82.5062ZM99.3671 81.5392C99.08 81.1086 98.9236 80.6927 98.8407 80.3612L108.542 77.9358C108.386 77.3127 108.12 76.6415 107.688 75.9922L99.3671 81.5392ZM98.8838 80.5221C98.8468 80.3927 98.8264 80.2918 98.8153 80.2293C98.8041 80.1657 98.7996 80.1245 98.7983 80.1109L108.749 79.1158C108.711 78.74 108.642 78.2737 108.499 77.7749L98.8838 80.5221ZM98.804 80.1655C98.8008 80.1366 98.7993 80.1175 98.7987 80.1098C98.7982 80.1019 98.7983 80.1019 98.7987 80.1108C98.7995 80.1298 98.8008 80.1722 98.8008 80.2422H108.801C108.801 79.8904 108.789 79.479 108.743 79.0612L98.804 80.1655ZM98.8008 80.2422C98.8008 80.4866 98.7937 80.6346 98.7882 80.7064L108.759 81.4734C108.79 81.0712 108.801 80.6541 108.801 80.2422H98.8008ZM98.7734 81.0899C98.7734 80.8768 98.7965 80.2189 99.1919 79.4281L108.136 83.9002C108.677 82.8177 108.773 81.777 108.773 81.0899H98.7734ZM98.9824 79.9085C99.226 79.259 99.7291 78.4422 100.644 77.832L106.191 86.1525C107.326 85.3964 107.993 84.3609 108.346 83.4197L98.9824 79.9085ZM100.294 78.0879C101.388 77.213 102.516 77.1016 103.035 77.1016V87.1016C103.882 87.1016 105.265 86.9174 106.541 85.8966L100.294 78.0879ZM103.035 77.1016C103.435 77.1016 103.716 77.1613 103.816 77.1846C103.931 77.2115 103.979 77.2317 103.943 77.2185L100.486 86.6019C101.002 86.7918 101.941 87.1016 103.035 87.1016V77.1016ZM103.943 77.2185C103.465 77.0422 102.937 76.8718 102.377 76.7061L99.5366 86.2941C99.9617 86.42 100.272 86.523 100.486 86.6019L103.943 77.2185ZM102.538 76.7566C101.749 76.4936 100.899 76.2961 100.036 76.1412L98.269 85.9839C98.8276 86.0842 99.1806 86.1784 99.3759 86.2435L102.538 76.7566ZM100.058 76.1453C98.9895 75.9484 97.8621 75.8712 96.7188 75.8712V85.8712C97.4347 85.8712 97.9298 85.9215 98.2465 85.9798L100.058 76.1453ZM96.7188 75.8712C94.3376 75.8712 91.9922 76.3614 89.877 77.561L94.8105 86.2594C95.138 86.0736 95.7092 85.8712 96.7188 85.8712V75.8712ZM89.877 77.561C87.9804 78.6368 86.4016 80.1011 85.1857 81.9108L93.4862 87.4877C93.838 86.9642 94.2644 86.5691 94.8105 86.2594L89.877 77.561ZM85.1557 81.956C84.0387 83.6582 83.2585 85.5535 82.7592 87.5743L92.4673 89.9727C92.7337 88.8946 93.102 88.0737 93.5162 87.4426L85.1557 81.956ZM82.7492 87.6154C82.302 89.4937 82.0519 91.4326 81.987 93.423L91.9817 93.749C92.0262 92.3853 92.1954 91.1158 92.4773 89.9316L82.7492 87.6154ZM89.483 97.9169C89.8151 97.7253 90.2156 97.5165 90.6925 97.293L86.4481 88.2384C85.7584 88.5617 85.1016 88.8998 84.4858 89.2551L89.483 97.9169ZM90.6393 97.3175C91.0406 97.1351 91.498 96.9593 92.0174 96.7953L89.0061 87.2595C88.14 87.533 87.3031 87.8494 86.5013 88.2139L90.6393 97.3175ZM91.9821 96.8063C92.4604 96.6591 92.984 96.5362 93.5573 96.4429L91.9505 86.5728C90.9561 86.7347 89.9849 86.9582 89.0413 87.2485L91.9821 96.8063ZM93.6684 96.4235C94.1172 96.34 94.6471 96.2891 95.2695 96.2891V86.2891C94.1055 86.2891 92.9583 86.384 91.8394 86.5922L93.6684 96.4235ZM95.2695 96.2891C96.7555 96.2891 97.6918 96.4987 98.2413 96.72L101.977 87.4442C99.9019 86.6082 97.6117 86.2891 95.2695 86.2891V96.2891ZM98.2971 96.7421C98.9606 97.0001 99.3012 97.2833 99.4955 97.5084L107.067 90.9761C105.657 89.3418 103.883 88.1849 101.922 87.4221L98.2971 96.7421ZM99.5648 97.5871C99.8323 97.8843 100.057 98.2658 100.211 98.8236L109.852 96.1687C109.313 94.2109 108.371 92.4231 106.998 90.8974L99.5648 97.5871ZM100.216 98.8417C100.425 99.5895 100.551 100.48 100.551 101.543H110.551C110.551 99.6892 110.331 97.8819 109.847 96.1506L100.216 98.8417ZM105.793 101.981C105.793 100.585 105.649 99.2031 105.309 97.8725L95.6203 100.346C95.718 100.729 95.793 101.262 95.793 101.981H105.793ZM105.339 97.9926C104.992 96.4827 104.346 95.0126 103.296 93.7284L95.556 100.061C95.5285 100.027 95.5214 100.009 95.5281 100.023C95.5358 100.04 95.5626 100.101 95.5912 100.226L105.339 97.9926ZM103.296 93.7284C102.198 92.3875 100.81 91.4563 99.314 90.8577L95.6001 100.142C95.6804 100.175 95.6971 100.191 95.6744 100.175C95.6634 100.167 95.6456 100.153 95.6236 100.133C95.6015 100.113 95.5784 100.088 95.556 100.061L103.296 93.7284ZM99.314 90.8577C97.7314 90.2247 96.0456 90.0079 94.4219 90.0079V100.008C95.2044 100.008 95.542 100.119 95.6001 100.142L99.314 90.8577ZM94.4219 90.0079C93.43 90.0079 92.4444 90.1019 91.469 90.2864L93.3279 100.112C93.7014 100.041 94.0648 100.008 94.4219 100.008V90.0079ZM91.5981 90.2638C90.6482 90.4178 89.717 90.6501 88.8081 90.9617L92.0513 100.421C92.4184 100.295 92.7997 100.2 93.1988 100.135L91.5981 90.2638ZM88.8906 90.9342C88.0314 91.2122 87.1968 91.5537 86.3889 91.9576L90.8611 100.902C91.2198 100.722 91.5884 100.572 91.9688 100.449L88.8906 90.9342ZM86.4472 91.929C85.6699 92.305 84.9245 92.7337 84.2204 93.2211L89.9125 101.443C90.1563 101.274 90.4499 101.101 90.8028 100.931L86.4472 91.929ZM82.0664 97.3321C82.0664 99.8626 82.2212 102.157 82.5864 104.143L92.4214 102.334C92.2033 101.148 92.0664 99.5047 92.0664 97.3321H82.0664ZM82.5967 104.197C82.9708 106.112 83.5561 107.976 84.5005 109.591L93.1323 104.542C92.9465 104.224 92.6568 103.537 92.4111 102.279L82.5967 104.197ZM84.5581 109.687C85.5532 111.304 86.9383 112.708 88.7788 113.608L93.1743 104.626C93.1947 104.636 93.2122 104.647 93.2253 104.656C93.2383 104.665 93.2419 104.669 93.2365 104.664C93.2261 104.654 93.1662 104.595 93.0747 104.446L84.5581 109.687ZM88.8569 113.646C90.5037 114.417 92.2573 114.719 93.9844 114.719V104.719C93.4146 104.719 93.163 104.62 93.0963 104.589L88.8569 113.646ZM93.9844 114.719C95.7754 114.719 97.5982 114.381 99.2934 113.516L94.7456 104.61C94.7273 104.619 94.5266 104.719 93.9844 104.719V114.719ZM99.2934 113.516C100.776 112.758 102.07 111.711 103.104 110.375L95.2003 104.25C95.1049 104.373 94.9764 104.492 94.7456 104.61L99.2934 113.516ZM103.141 110.328C104.087 109.076 104.775 107.68 105.198 106.172L95.568 103.476C95.4798 103.791 95.3478 104.054 95.164 104.297L103.141 110.328ZM105.18 106.235C105.587 104.849 105.793 103.426 105.793 101.981H95.793C95.793 102.468 95.7251 102.941 95.586 103.413L105.18 106.235Z" fill="#242546"/>
<path d="M82.4789 36.0747C80.8021 37.4357 77.9959 39.1556 77.9959 39.1556C77.9959 39.1556 76.3642 34.6781 75.6037 31.7839C74.7963 28.7112 74.0514 23.9 74.0514 23.9C74.0514 23.9 73.2208 19.5219 73.3235 16.552L73.3253 16.4996C73.413 13.962 73.4709 12.2878 74.2503 9.92637C74.9043 7.94472 75.3378 6.77017 76.5365 5.24186C77.723 3.72913 78.6244 3.13007 80.1849 2.32378C81.9286 1.4228 83.0392 1.07946 84.9179 1.16821C86.5851 1.24697 87.5498 1.57222 89.0613 2.45013C90.9162 3.52741 91.9078 4.50175 93.165 6.52677C94.1471 8.10865 94.6457 9.14759 95.0421 11.0958C95.5119 13.405 95.3337 14.8667 94.9551 17.2093C94.5473 19.7324 93.9559 21.0658 92.9263 23.2951C91.51 26.3618 90.2666 27.7375 88.25 30.2168C86.1785 32.7635 84.9115 34.1003 82.4789 36.0747Z" stroke="white" stroke-width="2"/>
</svg>
